<?xml version="1.0" encoding="utf-8" standalone="no"?>
<!DOCTYPE svg PUBLIC "-//W3C//DTD SVG 1.1//EN"
  "http://www.w3.org/Graphics/SVG/1.1/DTD/svg11.dtd">
<svg xmlns:xlink="http://www.w3.org/1999/xlink" width="255.5784pt" height="255.5784pt" viewBox="0 0 255.5784 255.5784" xmlns="http://www.w3.org/2000/svg" version="1.1">
 <metadata>
  <rdf:RDF xmlns:dc="http://purl.org/dc/elements/1.1/" xmlns:cc="http://creativecommons.org/ns#" xmlns:rdf="http://www.w3.org/1999/02/22-rdf-syntax-ns#">
   <cc:Work>
    <dc:type rdf:resource="http://purl.org/dc/dcmitype/StillImage"/>
    <dc:date>2025-01-03T02:28:04.272615</dc:date>
    <dc:format>image/svg+xml</dc:format>
    <dc:creator>
     <cc:Agent>
      <dc:title>Matplotlib v3.9.4, https://matplotlib.org/</dc:title>
     </cc:Agent>
    </dc:creator>
   </cc:Work>
  </rdf:RDF>
 </metadata>
 <defs>
  <style type="text/css">*{stroke-linejoin: round; stroke-linecap: butt}</style>
 </defs>
 <g id="figure_1">
  <g id="patch_1">
   <path d="M 0 255.5784 
L 255.5784 255.5784 
L 255.5784 0 
L 0 0 
z
" style="fill: #ffffff"/>
  </g>
  <g id="patch_2">
   <path d="M 0 255.5784 
L 255.5784 255.5784 
L 255.5784 -0 
L 0 -0 
z
" style="fill: #ffffff"/>
  </g>
  <g id="axes_1">
   <g id="Line3DCollection_1">
    <path d="M 131.299239 84.317378 
L 130.180465 84.71829 
L 129.06007 85.217181 
L 127.938138 85.813961 
L 126.814748 86.508352 
L 125.689982 87.299884 
L 124.563922 88.187897 
L 123.436646 89.171545 
L 122.308234 90.249798 
L 121.178763 91.42144 
L 120.048308 92.685078 
L 118.916943 94.039139 
L 117.78474 95.48188 
L 116.651767 97.011388 
L 115.51809 98.625586 
L 114.383773 100.322239 
L 113.248876 102.098958 
L 112.113456 103.953206 
L 110.977566 105.882304 
L 109.841255 107.883439 
L 108.70457 109.953669 
L 107.567552 112.08993 
L 106.430237 114.289044 
L 105.292659 116.547726 
L 104.154847 118.862593 
L 103.016823 121.230167 
L 101.878607 123.64689 
L 100.740214 126.109128 
L 99.601652 128.613177 
L 98.462927 131.155276 
L 97.324037 133.731613 
L 96.184977 136.338333 
L 95.045738 138.971545 
L 93.906303 141.627335 
L 92.766652 144.301768 
L 91.626761 146.9909 
L 90.486598 149.690788 
L 89.34613 152.397491 
L 88.205317 155.107084 
L 87.064115 157.815664 
L 85.922474 160.519358 
L 84.780343 163.214327 
L 83.637663 165.896779 
L 82.494374 168.562971 
L 81.350409 171.209219 
L 80.2057 173.831902 
L 79.060173 176.427471 
L 77.913753 178.992455 
L 76.766359 181.523463 
L 75.61791 184.017196 
" clip-path="url(#p0917596ccc)" style="fill: none; stroke: #000000; stroke-width: 0.5"/>
    <path d="M 131.299239 84.317378 
L 130.500578 84.796144 
L 129.700491 85.373195 
L 128.899035 86.048487 
L 128.096267 86.821785 
L 127.292244 87.692662 
L 126.487023 88.660505 
L 125.680659 89.724509 
L 124.873207 90.883686 
L 124.064723 92.136864 
L 123.25526 93.482688 
L 122.444868 94.919626 
L 121.633599 96.445974 
L 120.821502 98.059856 
L 120.008622 99.759231 
L 119.195006 101.541897 
L 118.380695 103.405497 
L 117.565729 105.347525 
L 116.750147 107.365332 
L 115.933984 109.456131 
L 115.117271 111.617003 
L 114.300038 113.844908 
L 113.482313 116.136687 
L 112.664117 118.489074 
L 111.845471 120.898699 
L 111.026392 123.362101 
L 110.206893 125.87573 
L 109.386985 128.43596 
L 108.566673 131.039094 
L 107.745961 133.681375 
L 106.924848 136.35899 
L 106.103331 139.068083 
L 105.2814 141.80476 
L 104.459046 144.565099 
L 103.636253 147.345157 
L 102.813002 150.14098 
L 101.989272 152.948609 
L 101.165037 155.764089 
L 100.340268 158.583478 
L 99.514934 161.402851 
L 98.688997 164.218312 
L 97.86242 167.026001 
L 97.03516 169.822098 
L 96.207172 172.602833 
L 95.378409 175.364492 
L 94.548819 178.103423 
L 93.718349 180.816044 
L 92.886943 183.49885 
L 92.054543 186.148414 
L 91.221086 188.7614 
" clip-path="url(#p0917596ccc)" style="fill: none; stroke: #000000; stroke-width: 0.5"/>
    <path d="M 131.299239 84.317378 
L 130.873074 84.845857 
L 130.446056 85.472845 
L 130.018215 86.198326 
L 129.58958 87.022093 
L 129.160182 87.943748 
L 128.73005 88.962706 
L 128.299214 90.07819 
L 127.867702 91.289241 
L 127.435544 92.594711 
L 127.002768 93.993274 
L 126.569401 95.483424 
L 126.135469 97.06348 
L 125.700998 98.731592 
L 125.266014 100.485741 
L 124.830539 102.323748 
L 124.394596 104.243278 
L 123.958207 106.241844 
L 123.521392 108.316816 
L 123.084168 110.465425 
L 122.646554 112.684768 
L 122.208564 114.97182 
L 121.770213 117.323435 
L 121.331513 119.73636 
L 120.892475 122.207236 
L 120.453107 124.732609 
L 120.013416 127.308938 
L 119.573408 129.932602 
L 119.133086 132.59991 
L 118.692452 135.307106 
L 118.251505 138.050379 
L 117.810242 140.825872 
L 117.36866 143.62969 
L 116.926752 146.457907 
L 116.48451 149.306575 
L 116.041923 152.171733 
L 115.598981 155.049415 
L 115.155668 157.935655 
L 114.71197 160.826501 
L 114.267868 163.718016 
L 113.823343 166.606291 
L 113.378375 169.48745 
L 112.932939 172.357656 
L 112.487013 175.213123 
L 112.040569 178.050118 
L 111.593579 180.86497 
L 111.146016 183.654076 
L 110.697848 186.413908 
L 110.249043 189.141019 
L 109.799567 191.832049 
" clip-path="url(#p0917596ccc)" style="fill: none; stroke: #000000; stroke-width: 0.5"/>
    <path d="M 131.299239 84.317378 
L 131.273531 84.86416 
L 131.247768 85.509538 
L 131.221952 86.253507 
L 131.196084 87.095871 
L 131.170168 88.036243 
L 131.144203 89.074047 
L 131.118193 90.208518 
L 131.092138 91.438705 
L 131.066041 92.763472 
L 131.039904 94.181503 
L 131.013727 95.6913 
L 130.987513 97.291193 
L 130.961263 98.97934 
L 130.934979 100.753731 
L 130.908662 102.612195 
L 130.882313 104.552406 
L 130.855934 106.571883 
L 130.829526 108.668004 
L 130.803091 110.838006 
L 130.776629 113.078993 
L 130.750141 115.387945 
L 130.723628 117.761722 
L 130.697091 120.197074 
L 130.67053 122.690647 
L 130.643947 125.23899 
L 130.617342 127.838566 
L 130.590714 130.485756 
L 130.564065 133.176869 
L 130.537394 135.908152 
L 130.510701 138.675794 
L 130.483987 141.475938 
L 130.457251 144.304688 
L 130.430492 147.158118 
L 130.403711 150.032278 
L 130.376907 152.923204 
L 130.350079 155.826926 
L 130.323226 158.739478 
L 130.296347 161.656901 
L 130.269442 164.575255 
L 130.242509 167.490626 
L 130.215547 170.399131 
L 130.188555 173.29693 
L 130.161531 176.180229 
L 130.134474 179.045288 
L 130.107382 181.88843 
L 130.080253 184.706044 
L 130.053085 187.494594 
L 130.025878 190.250624 
L 129.998628 192.970767 
" clip-path="url(#p0917596ccc)" style="fill: none; stroke: #000000; stroke-width: 0.5"/>
    <path d="M 131.299239 84.317378 
L 131.675674 84.849847 
L 132.052866 85.480843 
L 132.43079 86.210354 
L 132.809419 87.038174 
L 133.188726 87.963908 
L 133.568685 88.986973 
L 133.94927 90.106595 
L 134.330455 91.321815 
L 134.712216 92.63149 
L 135.094527 94.034294 
L 135.477365 95.528724 
L 135.860705 97.113102 
L 136.244526 98.785578 
L 136.628805 100.544136 
L 137.013522 102.386598 
L 137.398656 104.310632 
L 137.78419 106.313753 
L 138.170106 108.39333 
L 138.556386 110.546597 
L 138.943017 112.770653 
L 139.329984 115.062473 
L 139.717276 117.418914 
L 140.104882 119.836721 
L 140.492791 122.312538 
L 140.880998 124.842911 
L 141.269494 127.4243 
L 141.658277 130.053085 
L 142.047343 132.725573 
L 142.436691 135.438011 
L 142.826322 138.186587 
L 143.216237 140.967444 
L 143.606441 143.776687 
L 143.99694 146.61039 
L 144.38774 149.464605 
L 144.778851 152.335369 
L 145.170283 155.218716 
L 145.562049 158.11068 
L 145.954163 161.007307 
L 146.346641 163.904659 
L 146.739499 166.798828 
L 147.132757 169.685934 
L 147.526436 172.562141 
L 147.920556 175.42366 
L 148.315141 178.266757 
L 148.710215 181.08776 
L 149.105805 183.883064 
L 149.501938 186.64914 
L 149.898642 189.382539 
L 150.295947 192.079897 
" clip-path="url(#p0917596ccc)" style="fill: none; stroke: #000000; stroke-width: 0.5"/>
    <path d="M 131.299239 84.317378 
L 132.053119 84.80386 
L 132.808367 85.388662 
L 133.56493 86.071742 
L 134.322754 86.85287 
L 135.081786 87.731624 
L 135.841972 88.707393 
L 136.60326 89.77938 
L 137.365596 90.9466 
L 138.128931 92.207883 
L 138.893215 93.56188 
L 139.658397 95.007064 
L 140.424431 96.541732 
L 141.191272 98.164014 
L 141.958874 99.871872 
L 142.727196 101.663106 
L 143.496198 103.535365 
L 144.265842 105.486145 
L 145.036092 107.512799 
L 145.806915 109.612543 
L 146.578282 111.782461 
L 147.350163 114.019515 
L 148.122536 116.320548 
L 148.895377 118.682296 
L 149.668667 121.101391 
L 150.442392 123.574372 
L 151.216539 126.097692 
L 151.991098 128.667724 
L 152.766063 131.280774 
L 153.541431 133.933083 
L 154.317204 136.620839 
L 155.093385 139.340186 
L 155.869982 142.08723 
L 156.647005 144.858048 
L 157.42447 147.648696 
L 158.202393 150.45522 
L 158.980795 153.273658 
L 159.759701 156.100055 
L 160.539139 158.930466 
L 161.319138 161.760966 
L 162.099733 164.587655 
L 162.880961 167.406672 
L 163.662861 170.214193 
L 164.445477 173.006446 
L 165.228853 175.779714 
L 166.013039 178.530343 
L 166.798084 181.254747 
L 167.584043 183.949417 
L 168.37097 186.610923 
L 169.158925 189.235926 
" clip-path="url(#p0917596ccc)" style="fill: none; stroke: #000000; stroke-width: 0.5"/>
    <path d="M 131.299239 84.317378 
L 132.381115 84.729226 
L 133.464606 85.239094 
L 134.549634 85.846897 
L 135.636119 86.552363 
L 136.723984 87.355028 
L 137.81315 88.254239 
L 138.90354 89.249156 
L 139.995079 90.338754 
L 141.087692 91.521823 
L 142.181306 92.796976 
L 143.27585 94.162647 
L 144.371256 95.617095 
L 145.467456 97.158415 
L 146.564386 98.784535 
L 147.661987 100.493222 
L 148.760199 102.282094 
L 149.858967 104.148617 
L 150.958241 106.090117 
L 152.057972 108.103784 
L 153.158117 110.186679 
L 154.258636 112.335742 
L 155.359492 114.547797 
L 156.460654 116.819562 
L 157.562095 119.147655 
L 158.663791 121.528602 
L 159.765725 123.958844 
L 160.867883 126.434749 
L 161.970255 128.952614 
L 163.072838 131.508678 
L 164.175632 134.09913 
L 165.278643 136.720113 
L 166.38188 139.367737 
L 167.485359 142.038086 
L 168.589099 144.727224 
L 169.693125 147.431206 
L 170.797467 150.146086 
L 171.902158 152.867921 
L 173.007236 155.592785 
L 174.112745 158.31677 
L 175.218731 161.036 
L 176.325247 163.746634 
L 177.432348 166.444875 
L 178.540093 169.126977 
L 179.648547 171.789251 
L 180.757777 174.428072 
L 181.867853 177.039887 
L 182.97885 179.621218 
L 184.090845 182.168672 
L 185.203919 184.678942 
" clip-path="url(#p0917596ccc)" style="fill: none; stroke: #000000; stroke-width: 0.5"/>
    <path d="M 131.299239 84.317378 
L 132.638182 84.630851 
L 133.978555 85.042021 
L 135.320258 85.55075 
L 136.663191 86.156709 
L 138.007256 86.859379 
L 139.352355 87.658053 
L 140.698391 88.551838 
L 142.045269 89.539654 
L 143.392895 90.620241 
L 144.741179 91.79216 
L 146.090031 93.053796 
L 147.439366 94.403363 
L 148.7891 95.838906 
L 150.139155 97.358312 
L 151.489454 98.959306 
L 152.839925 100.639466 
L 154.1905 102.39622 
L 155.541115 104.22686 
L 156.891712 106.128544 
L 158.242236 108.098303 
L 159.592638 110.133049 
L 160.942872 112.229584 
L 162.292902 114.384604 
L 163.642692 116.594709 
L 164.992214 118.856409 
L 166.341447 121.166135 
L 167.690374 123.520244 
L 169.038983 125.915028 
L 170.387269 128.346724 
L 171.735233 130.811518 
L 173.082882 133.30556 
L 174.430228 135.824966 
L 175.77729 138.365827 
L 177.124091 140.924222 
L 178.470662 143.49622 
L 179.817037 146.077893 
L 181.163259 148.66532 
L 182.509373 151.254597 
L 183.855432 153.841844 
L 185.201493 156.423213 
L 186.547618 158.994895 
L 187.893875 161.553127 
L 189.240335 164.094197 
L 190.587076 166.614456 
L 191.934178 169.110319 
L 193.281726 171.578274 
L 194.629809 174.014888 
L 195.978521 176.416812 
L 197.327957 178.780787 
" clip-path="url(#p0917596ccc)" style="fill: none; stroke: #000000; stroke-width: 0.5"/>
    <path d="M 131.299239 84.317378 
L 132.807522 84.515195 
L 134.316661 84.810438 
L 135.826543 85.202904 
L 137.337053 85.692199 
L 138.84808 86.277742 
L 140.359511 86.958763 
L 141.871237 87.734304 
L 143.383151 88.603227 
L 144.895146 89.564211 
L 146.40712 90.615759 
L 147.918973 91.756199 
L 149.430608 92.983692 
L 150.941932 94.296231 
L 152.452856 95.691651 
L 153.963295 97.167631 
L 155.473168 98.721704 
L 156.9824 100.351257 
L 158.49092 102.053542 
L 159.998663 103.82568 
L 161.505569 105.664671 
L 163.011583 107.567398 
L 164.516657 109.530635 
L 166.020748 111.551056 
L 167.523819 113.625241 
L 169.025841 115.749685 
L 170.52679 117.920808 
L 172.026647 120.134956 
L 173.525401 122.388418 
L 175.023049 124.677429 
L 176.519592 126.998178 
L 178.015038 129.346819 
L 179.509403 131.719479 
L 181.002707 134.112262 
L 182.494978 136.521261 
L 183.986251 138.942568 
L 185.476565 141.372276 
L 186.965967 143.80649 
L 188.454509 146.241335 
L 189.94225 148.672966 
L 191.429254 151.097567 
L 192.915589 153.511368 
L 194.40133 155.910647 
L 195.886558 158.291735 
L 197.371356 160.651029 
L 198.855815 162.984991 
L 200.340027 165.29016 
L 201.824091 167.563155 
L 203.308108 169.80068 
L 204.792184 171.999532 
" clip-path="url(#p0917596ccc)" style="fill: none; stroke: #000000; stroke-width: 0.5"/>
    <path d="M 131.299239 84.317378 
L 132.878111 84.389843 
L 134.457025 84.55957 
L 136.035859 84.826288 
L 137.614495 85.189534 
L 139.192815 85.648657 
L 140.770703 86.20282 
L 142.348044 86.851 
L 143.924726 87.591992 
L 145.500639 88.424413 
L 147.075676 89.346704 
L 148.649735 90.357134 
L 150.222715 91.453805 
L 151.794522 92.634656 
L 153.365062 93.89747 
L 154.934251 95.239877 
L 156.502004 96.659361 
L 158.068247 98.153267 
L 159.632907 99.718807 
L 161.195918 101.353065 
L 162.75722 103.053008 
L 164.316759 104.815487 
L 165.874487 106.637251 
L 167.430361 108.514951 
L 168.984347 110.44515 
L 170.536416 112.424328 
L 172.086545 114.44889 
L 173.634718 116.515179 
L 175.180927 118.619479 
L 176.725169 120.758026 
L 178.267449 122.927013 
L 179.807778 125.122603 
L 181.346173 127.340933 
L 182.882659 129.578124 
L 184.417267 131.83029 
L 185.950035 134.093543 
L 187.481005 136.364002 
L 189.010227 138.637805 
L 190.537758 140.911109 
L 192.06366 143.180102 
L 193.587998 145.441011 
L 195.110848 147.690106 
L 196.632285 149.92371 
L 198.152395 152.138203 
L 199.671264 154.33003 
L 201.188986 156.495707 
L 202.705657 158.631826 
L 204.221378 160.735063 
L 205.736255 162.802181 
L 207.250394 164.830037 
" clip-path="url(#p0917596ccc)" style="fill: none; stroke: #000000; stroke-width: 0.5"/>
    <path d="M 131.299239 84.317378 
L 132.845411 84.263003 
L 134.390775 84.305864 
L 135.935216 84.445618 
L 137.478617 84.681734 
L 139.020865 85.013492 
L 140.561847 85.439986 
L 142.101453 85.960128 
L 143.639574 86.572649 
L 145.176106 87.276101 
L 146.710947 88.068864 
L 148.243998 88.949148 
L 149.775164 89.914999 
L 151.304355 90.964301 
L 152.831484 92.094785 
L 154.35647 93.304033 
L 155.879236 94.589484 
L 157.39971 95.94844 
L 158.917825 97.378074 
L 160.433522 98.875434 
L 161.946745 100.437455 
L 163.457445 102.06096 
L 164.965578 103.742674 
L 166.471109 105.479226 
L 167.974005 107.267161 
L 169.474243 109.102946 
L 170.971804 110.982978 
L 172.466678 112.903594 
L 173.958859 114.861076 
L 175.448348 116.851661 
L 176.935155 118.871549 
L 178.419292 120.916914 
L 179.90078 122.983905 
L 181.379648 125.068661 
L 182.855927 127.167316 
L 184.329658 129.276007 
L 185.800885 131.390881 
L 187.269661 133.508106 
L 188.73604 135.623874 
L 190.200087 137.73441 
L 191.661869 139.835981 
L 193.121458 141.924901 
L 194.578932 143.997538 
L 196.034374 146.050321 
L 197.487869 148.079744 
L 198.939511 150.082378 
L 200.389392 152.054869 
L 201.837613 153.99395 
L 203.284274 155.896443 
L 204.729481 157.759265 
" clip-path="url(#p0917596ccc)" style="fill: none; stroke: #000000; stroke-width: 0.5"/>
    <path d="M 131.299239 84.317378 
L 132.711641 84.142968 
L 134.122573 84.065896 
L 135.531931 84.085754 
L 136.939611 84.201943 
L 138.345512 84.413681 
L 139.749533 84.719996 
L 141.151576 85.119739 
L 142.551546 85.611578 
L 143.949349 86.194007 
L 145.344895 86.86535 
L 146.738098 87.623759 
L 148.128875 88.467229 
L 149.517147 89.393593 
L 150.902838 90.400535 
L 152.285879 91.485592 
L 153.666202 92.64616 
L 155.043748 93.879503 
L 156.418458 95.182757 
L 157.790283 96.55294 
L 159.159176 97.986955 
L 160.525097 99.481601 
L 161.88801 101.033581 
L 163.247886 102.639505 
L 164.604703 104.295904 
L 165.95844 105.999232 
L 167.309088 107.74588 
L 168.656639 109.53218 
L 170.001093 111.354413 
L 171.342456 113.208821 
L 172.680738 115.09161 
L 174.015957 116.998963 
L 175.348135 118.927045 
L 176.677302 120.87201 
L 178.003489 122.830015 
L 179.326738 124.797218 
L 180.647092 126.769795 
L 181.964601 128.743942 
L 183.279319 130.715884 
L 184.591307 132.681884 
L 185.900627 134.638246 
L 187.20735 136.581323 
L 188.511547 138.507529 
L 189.813296 140.413336 
L 191.112677 142.295289 
L 192.409775 144.150006 
L 193.704676 145.974185 
L 194.997472 147.764613 
L 196.288257 149.518166 
L 197.577126 151.231817 
" clip-path="url(#p0917596ccc)" style="fill: none; stroke: #000000; stroke-width: 0.5"/>
    <path d="M 131.299239 84.317378 
L 132.485616 84.037573 
L 133.670218 83.855298 
L 134.852961 83.770087 
L 136.033759 83.781284 
L 137.21253 83.888048 
L 138.389191 84.089352 
L 139.563663 84.383992 
L 140.735869 84.770583 
L 141.905733 85.247567 
L 143.073183 85.813217 
L 144.23815 86.465638 
L 145.400567 87.202779 
L 146.560371 88.02243 
L 147.717503 88.922232 
L 148.871907 89.899683 
L 150.023531 90.952145 
L 151.172327 92.076847 
L 152.318253 93.270895 
L 153.461268 94.531278 
L 154.601338 95.854876 
L 155.738432 97.238466 
L 156.872526 98.678731 
L 158.003599 100.172267 
L 159.131634 101.715591 
L 160.25662 103.305151 
L 161.378551 104.937329 
L 162.497425 106.608454 
L 163.613246 108.31481 
L 164.726022 110.052641 
L 165.835766 111.818159 
L 166.942495 113.607558 
L 168.046232 115.417014 
L 169.147003 117.242698 
L 170.244841 119.080783 
L 171.339782 120.927451 
L 172.431864 122.7789 
L 173.521134 124.631354 
L 174.607639 126.481066 
L 175.691431 128.324329 
L 176.772567 130.157481 
L 177.851106 131.976913 
L 178.927112 133.779073 
L 180.00065 135.560476 
L 181.071791 137.317707 
L 182.140605 139.047426 
L 183.207168 140.746378 
L 184.271557 142.411395 
L 185.333852 144.0394 
L 186.394133 145.627415 
" clip-path="url(#p0917596ccc)" style="fill: none; stroke: #000000; stroke-width: 0.5"/>
    <path d="M 131.299239 84.317378 
L 132.182151 83.953687 
L 133.063423 83.687749 
L 133.942992 83.519049 
L 134.820798 83.446885 
L 135.696781 83.470371 
L 136.570881 83.588436 
L 137.443041 83.799829 
L 138.313206 84.103126 
L 139.181322 84.496726 
L 140.047337 84.978863 
L 140.911203 85.547604 
L 141.77287 86.200861 
L 142.632297 86.936389 
L 143.48944 87.751797 
L 144.34426 88.644554 
L 145.196722 89.61199 
L 146.046792 90.651311 
L 146.894441 91.759596 
L 147.739642 92.933815 
L 148.582371 94.170828 
L 149.42261 95.467394 
L 150.260341 96.820182 
L 151.095552 98.225777 
L 151.928233 99.680686 
L 152.758378 101.181349 
L 153.585986 102.724145 
L 154.411057 104.305402 
L 155.233597 105.921403 
L 156.053614 107.568394 
L 156.87112 109.242596 
L 157.68613 110.940207 
L 158.498664 112.657416 
L 159.308743 114.390406 
L 160.116393 116.135363 
L 160.921642 117.888488 
L 161.724524 119.645997 
L 162.525071 121.404134 
L 163.323323 123.159176 
L 164.11932 124.907442 
L 164.913104 126.645294 
L 165.704722 128.369153 
L 166.494223 130.075496 
L 167.281656 131.760869 
L 168.067075 133.42189 
L 168.850534 135.055252 
L 169.632089 136.657736 
L 170.4118 138.226209 
L 171.189725 139.757632 
L 171.965926 141.249065 
" clip-path="url(#p0917596ccc)" style="fill: none; stroke: #000000; stroke-width: 0.5"/>
    <path d="M 131.299239 84.317378 
L 131.821086 83.896773 
L 132.341834 83.574105 
L 132.861449 83.348828 
L 133.379894 83.220209 
L 133.897136 83.187329 
L 134.413139 83.249088 
L 134.927871 83.404206 
L 135.441301 83.651227 
L 135.953397 83.988525 
L 136.46413 84.414305 
L 136.973472 84.92661 
L 137.481396 85.523326 
L 137.987876 86.202184 
L 138.49289 86.960774 
L 138.996415 87.79654 
L 139.49843 88.706797 
L 139.998919 89.688729 
L 140.497863 90.739403 
L 140.995249 91.855772 
L 141.491064 93.034683 
L 141.985297 94.272885 
L 142.47794 95.567037 
L 142.968986 96.913715 
L 143.458432 98.30942 
L 143.946273 99.750589 
L 144.432511 101.233597 
L 144.917147 102.75477 
L 145.400186 104.310393 
L 145.881632 105.896714 
L 146.361495 107.509957 
L 146.839785 109.146326 
L 147.316513 110.802016 
L 147.791693 112.47322 
L 148.265343 114.156133 
L 148.737479 115.846968 
L 149.208121 117.541953 
L 149.67729 119.237348 
L 150.14501 120.929443 
L 150.611306 122.614574 
L 151.076203 124.289124 
L 151.53973 125.949529 
L 152.001915 127.592288 
L 152.46279 129.213967 
L 152.922385 130.811206 
L 153.380733 132.380722 
L 153.837869 133.919318 
L 154.293828 135.423885 
L 154.748644 136.891409 
L 155.202355 138.318976 
" clip-path="url(#p0917596ccc)" style="fill: none; stroke: #000000; stroke-width: 0.5"/>
    <path d="M 131.299239 84.317378 
L 131.425988 83.870531 
L 131.552454 83.521716 
L 131.67863 83.270373 
L 131.804507 83.115751 
L 131.930076 83.05692 
L 132.05533 83.092764 
L 132.18026 83.22199 
L 132.304858 83.443129 
L 132.429119 83.754542 
L 132.553033 84.15442 
L 132.676596 84.640796 
L 132.7998 85.211543 
L 132.922639 85.864383 
L 133.045109 86.596893 
L 133.167203 87.406512 
L 133.288917 88.290541 
L 133.410246 89.24616 
L 133.531188 90.270427 
L 133.651737 91.360288 
L 133.771893 92.512584 
L 133.891651 93.724059 
L 134.011011 94.991367 
L 134.12997 96.311082 
L 134.248528 97.679702 
L 134.366685 99.09366 
L 134.48444 100.549331 
L 134.601795 102.043041 
L 134.71875 103.571074 
L 134.835307 105.12968 
L 134.951468 106.715083 
L 135.067236 108.323493 
L 135.182614 109.951105 
L 135.297605 111.594117 
L 135.412213 113.24873 
L 135.526443 114.91116 
L 135.640301 116.577642 
L 135.75379 118.244441 
L 135.866917 119.907857 
L 135.979688 121.564232 
L 136.09211 123.209955 
L 136.204189 124.841475 
L 136.315933 126.455298 
L 136.427349 128.047999 
L 136.538444 129.616228 
L 136.649228 131.156714 
L 136.759708 132.666269 
L 136.869892 134.141797 
L 136.979791 135.580293 
L 137.089411 136.978856 
" clip-path="url(#p0917596ccc)" style="fill: none; stroke: #000000; stroke-width: 0.5"/>
    <path d="M 131.299239 84.317378 
L 131.022625 83.876668 
L 130.746615 83.533968 
L 130.471227 83.28872 
L 130.196481 83.140178 
L 129.922395 83.087414 
L 129.648986 83.129316 
L 129.376272 83.264595 
L 129.104269 83.491783 
L 128.832994 83.809245 
L 128.562461 84.215177 
L 128.292687 84.707611 
L 128.023685 85.284426 
L 127.755468 85.943345 
L 127.488048 86.681948 
L 127.221437 87.497674 
L 126.955646 88.38783 
L 126.690684 89.349595 
L 126.42656 90.380029 
L 126.163281 91.47608 
L 125.900854 92.63459 
L 125.639284 93.852306 
L 125.378576 95.125881 
L 125.118733 96.451891 
L 124.859757 97.826833 
L 124.601649 99.247142 
L 124.34441 100.709194 
L 124.088038 102.209314 
L 123.832531 103.743785 
L 123.577885 105.308858 
L 123.324096 106.900758 
L 123.07116 108.515691 
L 122.819068 110.149854 
L 122.567815 111.799442 
L 122.31739 113.460657 
L 122.067785 115.129712 
L 121.818989 116.802842 
L 121.57099 118.47631 
L 121.323777 120.146414 
L 121.077336 121.809494 
L 120.831653 123.461939 
L 120.586714 125.100194 
L 120.342503 126.720762 
L 120.099003 128.320219 
L 119.856198 129.895211 
L 119.614071 131.442463 
L 119.372603 132.958787 
L 119.131777 134.441082 
L 118.891572 135.886343 
L 118.65197 137.291664 
" clip-path="url(#p0917596ccc)" style="fill: none; stroke: #000000; stroke-width: 0.5"/>
    <path d="M 131.299239 84.317378 
L 130.637299 83.914785 
L 129.976698 83.610069 
L 129.317481 83.402692 
L 128.659693 83.291931 
L 128.003379 83.276878 
L 127.348582 83.356442 
L 126.695344 83.529353 
L 126.043706 83.794164 
L 125.393709 84.149257 
L 124.745388 84.592846 
L 124.098782 85.122983 
L 123.453924 85.737561 
L 122.810847 86.434319 
L 122.169582 87.210853 
L 121.530156 88.064615 
L 120.892595 88.992924 
L 120.256925 89.992972 
L 119.623166 91.061829 
L 118.991337 92.196454 
L 118.361455 93.393697 
L 117.733533 94.650311 
L 117.107584 95.962959 
L 116.483616 97.328218 
L 115.861636 98.742593 
L 115.241646 100.202519 
L 114.623647 101.704376 
L 114.007638 103.244488 
L 113.393614 104.819139 
L 112.781569 106.424578 
L 112.171492 108.057027 
L 111.563371 109.712689 
L 110.957191 111.387757 
L 110.352934 113.078419 
L 109.750582 114.780871 
L 109.150112 116.491318 
L 108.551499 118.205986 
L 107.954717 119.92113 
L 107.359737 121.633037 
L 106.766527 123.338035 
L 106.175055 125.032502 
L 105.585287 126.71287 
L 104.997185 128.375629 
L 104.410711 130.017341 
L 103.825826 131.634637 
L 103.242487 133.224228 
L 102.660653 134.78291 
L 102.080279 136.307565 
L 101.50132 137.795172 
L 100.923731 139.242809 
" clip-path="url(#p0917596ccc)" style="fill: none; stroke: #000000; stroke-width: 0.5"/>
    <path d="M 131.299239 84.317378 
L 130.295147 83.982404 
L 129.292793 83.7451 
L 128.292249 83.604968 
L 127.293584 83.561321 
L 126.296868 83.613288 
L 125.302168 83.759815 
L 124.30955 83.999666 
L 123.31908 84.33143 
L 122.330818 84.753522 
L 121.344824 85.264187 
L 120.361155 85.861508 
L 119.379867 86.543407 
L 118.401011 87.307652 
L 117.424634 88.151864 
L 116.450784 89.073521 
L 115.479501 90.069964 
L 114.510824 91.138405 
L 113.54479 92.275936 
L 112.581428 93.479531 
L 111.620766 94.746056 
L 110.662829 96.072278 
L 109.707635 97.454871 
L 108.755201 98.890422 
L 107.805539 100.375442 
L 106.858656 101.906374 
L 105.914557 103.479599 
L 104.973239 105.091444 
L 104.0347 106.738192 
L 103.098929 108.416089 
L 102.165916 110.121353 
L 101.235643 111.85018 
L 100.30809 113.598755 
L 99.383233 115.363257 
L 98.461043 117.139868 
L 97.541489 118.924781 
L 96.624535 120.714207 
L 95.710143 122.504382 
L 94.79827 124.291577 
L 93.888872 126.0721 
L 92.981899 127.842306 
L 92.0773 129.598605 
L 91.175022 131.337465 
L 90.275006 133.05542 
L 89.377194 134.749078 
L 88.481524 136.415121 
L 87.587933 138.050317 
L 86.696353 139.65152 
L 85.806718 141.21568 
L 84.918959 142.739844 
" clip-path="url(#p0917596ccc)" style="fill: none; stroke: #000000; stroke-width: 0.5"/>
    <path d="M 131.299239 84.317378 
L 130.018513 84.075125 
L 128.739492 83.930323 
L 127.462269 83.882526 
L 126.186937 83.931099 
L 124.913586 84.07522 
L 123.642306 84.313886 
L 122.373184 84.645908 
L 121.106304 85.069922 
L 119.84175 85.584389 
L 118.5796 86.187599 
L 117.319931 86.877675 
L 116.062817 87.65258 
L 114.808326 88.510122 
L 113.556524 89.447956 
L 112.307473 90.463594 
L 111.061231 91.554409 
L 109.81785 92.717644 
L 108.57738 93.950416 
L 107.339863 95.249722 
L 106.105341 96.612452 
L 104.873845 98.03539 
L 103.645407 99.515226 
L 102.420049 101.048561 
L 101.197792 102.631918 
L 99.978648 104.261745 
L 98.762626 105.934429 
L 97.549729 107.646299 
L 96.339955 109.393638 
L 95.133298 111.172689 
L 93.929744 112.979664 
L 92.729277 114.81075 
L 91.531872 116.66212 
L 90.337503 118.52994 
L 89.146137 120.410375 
L 87.957737 122.299601 
L 86.772259 124.193807 
L 85.589659 126.089206 
L 84.409883 127.982043 
L 83.232878 129.868599 
L 82.058583 131.745201 
L 80.886935 133.608226 
L 79.717868 135.454109 
L 78.551309 137.279351 
L 77.387185 139.080521 
L 76.225419 140.854267 
L 75.065931 142.597315 
L 73.908638 144.306481 
L 72.753455 145.978673 
L 71.600293 147.610895 
" clip-path="url(#p0917596ccc)" style="fill: none; stroke: #000000; stroke-width: 0.5"/>
    <path d="M 131.299239 84.317378 
L 129.825497 84.186909 
L 128.353005 84.153726 
L 126.881875 84.217444 
L 125.412214 84.377492 
L 123.944131 84.633107 
L 122.477731 84.983344 
L 121.013117 85.427074 
L 119.550391 85.96299 
L 118.089651 86.589606 
L 116.630992 87.305266 
L 115.174506 88.108145 
L 113.720282 88.996255 
L 112.268402 89.967449 
L 110.818949 91.019426 
L 109.371996 92.149741 
L 107.927614 93.355806 
L 106.48587 94.634897 
L 105.046824 95.984165 
L 103.61053 97.400638 
L 102.17704 98.881231 
L 100.746397 100.422752 
L 99.31864 102.021911 
L 97.8938 103.675325 
L 96.471905 105.37953 
L 95.052976 107.130986 
L 93.637026 108.926085 
L 92.224064 110.76116 
L 90.814092 112.632493 
L 89.407107 114.536324 
L 88.003098 116.468858 
L 86.602049 118.426272 
L 85.203938 120.404727 
L 83.808738 122.400371 
L 82.416415 124.409352 
L 81.026928 126.42782 
L 79.640233 128.451942 
L 78.25628 130.477902 
L 76.875013 132.501914 
L 75.496371 134.520227 
L 74.120287 136.52913 
L 72.746692 138.524964 
L 71.37551 140.504124 
L 70.006663 142.463068 
L 68.640066 144.398322 
L 67.275632 146.306485 
L 65.91327 148.184239 
L 64.552887 150.028349 
L 63.194384 151.835673 
L 61.837663 153.603163 
" clip-path="url(#p0917596ccc)" style="fill: none; stroke: #000000; stroke-width: 0.5"/>
    <path d="M 131.299239 84.317378 
L 129.728768 84.310466 
L 128.158793 84.400783 
L 126.589432 84.588013 
L 125.020803 84.871651 
L 123.453022 85.251003 
L 121.886205 85.725188 
L 120.320464 86.293143 
L 118.75591 86.953623 
L 117.192651 87.705203 
L 115.630792 88.546287 
L 114.070434 89.475105 
L 112.511675 90.489726 
L 110.954607 91.588054 
L 109.399321 92.767839 
L 107.8459 94.026681 
L 106.294424 95.362035 
L 104.744967 96.771219 
L 103.1976 98.251421 
L 101.652384 99.799703 
L 100.109378 101.41301 
L 98.568633 103.088176 
L 97.030195 104.821935 
L 95.494103 106.610925 
L 93.96039 108.451696 
L 92.429083 110.34072 
L 90.900201 112.274398 
L 89.373759 114.249067 
L 87.849762 116.261011 
L 86.328211 118.306466 
L 84.809099 120.38163 
L 83.292414 122.482671 
L 81.778136 124.605735 
L 80.266238 126.746954 
L 78.75669 128.902454 
L 77.24945 131.068362 
L 75.744476 133.240816 
L 74.241717 135.41597 
L 72.741114 137.590005 
L 71.242607 139.759132 
L 69.746127 141.919603 
L 68.251601 144.067715 
L 66.758951 146.199819 
L 65.268094 148.312325 
L 63.778942 150.401711 
L 62.291403 152.464524 
L 60.805381 154.497394 
L 59.320775 156.497029 
L 57.837483 158.460231 
L 56.355398 160.383895 
" clip-path="url(#p0917596ccc)" style="fill: none; stroke: #000000; stroke-width: 0.5"/>
    <path d="M 131.299239 84.317378 
L 129.734729 84.437726 
L 128.169851 84.655383 
L 126.604726 84.970102 
L 125.03947 85.381449 
L 123.4742 85.888799 
L 121.909033 86.491339 
L 120.344083 87.188072 
L 118.779459 87.977818 
L 117.215273 88.859219 
L 115.65163 89.830737 
L 114.088633 90.890665 
L 112.526383 92.037127 
L 110.964974 93.268083 
L 109.404498 94.581334 
L 107.845042 95.974531 
L 106.286688 97.445174 
L 104.729515 98.990626 
L 103.173593 100.608113 
L 101.618989 102.294733 
L 100.065765 104.047464 
L 98.513975 105.863172 
L 96.963669 107.738613 
L 95.414888 109.670448 
L 93.86767 111.655245 
L 92.322044 113.689489 
L 90.778033 115.769593 
L 89.235655 117.891899 
L 87.69492 120.052693 
L 86.155832 122.24821 
L 84.618386 124.474642 
L 83.082573 126.728149 
L 81.548377 129.004862 
L 80.015775 131.300897 
L 78.484736 133.612359 
L 76.955225 135.935353 
L 75.427199 138.265987 
L 73.90061 140.600386 
L 72.375403 142.934696 
L 70.851518 145.265092 
L 69.328887 147.587783 
L 67.80744 149.899026 
L 66.287099 152.195125 
L 64.767782 154.472441 
L 63.249401 156.727402 
L 61.731865 158.956502 
L 60.215078 161.156313 
L 58.698938 163.32349 
L 57.183343 165.454774 
L 55.668184 167.546997 
" clip-path="url(#p0917596ccc)" style="fill: none; stroke: #000000; stroke-width: 0.5"/>
    <path d="M 131.299239 84.317378 
L 129.84307 84.560364 
L 128.385787 84.900869 
L 126.9275 85.338714 
L 125.468318 85.87353 
L 124.008349 86.504762 
L 122.5477 87.231662 
L 121.086478 88.053299 
L 119.624786 88.968557 
L 118.162726 89.976139 
L 116.700398 91.07457 
L 115.237899 92.262201 
L 113.775321 93.537212 
L 112.312756 94.897618 
L 110.850289 96.341272 
L 109.388003 97.865873 
L 107.925977 99.468969 
L 106.464283 101.147964 
L 105.002991 102.900126 
L 103.542164 104.722589 
L 102.081862 106.612366 
L 100.622136 108.56635 
L 99.163036 110.581327 
L 97.704602 112.653978 
L 96.246871 114.780891 
L 94.789873 116.958568 
L 93.333631 119.183431 
L 91.878163 121.451831 
L 90.423481 123.760057 
L 88.96959 126.104346 
L 87.516489 128.480886 
L 86.064169 130.885827 
L 84.612618 133.315292 
L 83.161815 135.765382 
L 81.711734 138.232182 
L 80.262343 140.711776 
L 78.813602 143.200248 
L 77.365468 145.693692 
L 75.91789 148.188224 
L 74.470812 150.679982 
L 73.024172 153.16514 
L 71.577903 155.639912 
L 70.131934 158.100558 
L 68.686185 160.543395 
L 67.240577 162.9648 
L 65.795022 165.361217 
L 64.349428 167.729165 
L 62.903701 170.065242 
L 61.457741 172.366133 
L 60.011447 174.628613 
" clip-path="url(#p0917596ccc)" style="fill: none; stroke: #000000; stroke-width: 0.5"/>
    <path d="M 131.299239 84.317378 
L 130.046777 84.670346 
L 128.79276 85.12113 
L 127.537283 85.669615 
L 126.280436 86.315492 
L 125.022312 87.058267 
L 123.763002 87.897252 
L 122.502595 88.831577 
L 121.241182 89.860183 
L 119.978848 90.981831 
L 118.715678 92.195102 
L 117.451756 93.4984 
L 116.187162 94.889957 
L 114.921973 96.367839 
L 113.656264 97.929948 
L 112.390106 99.574028 
L 111.123566 101.297669 
L 109.856707 103.098317 
L 108.589591 104.973277 
L 107.322272 106.919719 
L 106.0548 108.934686 
L 104.787224 111.015102 
L 103.519583 113.157777 
L 102.251916 115.359415 
L 100.984253 117.616623 
L 99.716622 119.925918 
L 98.449043 122.283735 
L 97.181532 124.686434 
L 95.9141 127.13031 
L 94.646753 129.6116 
L 93.379489 132.126491 
L 92.112302 134.67113 
L 90.845181 137.241631 
L 89.578109 139.834081 
L 88.311064 142.444554 
L 87.044017 145.069113 
L 85.776936 147.703821 
L 84.509782 150.34475 
L 83.24251 152.987985 
L 81.975072 155.629637 
L 80.707415 158.265845 
L 79.439479 160.892788 
L 78.171202 163.506687 
L 76.902515 166.10382 
L 75.633346 168.680519 
L 74.363618 171.233183 
L 73.093252 173.758285 
L 71.822164 176.252373 
L 70.550264 178.712079 
L 69.277463 181.134127 
" clip-path="url(#p0917596ccc)" style="fill: none; stroke: #000000; stroke-width: 0.5"/>
    <path d="M 131.299239 84.317378 
L 130.180465 84.71829 
L 129.06007 85.217181 
L 127.938138 85.813961 
L 126.814748 86.508352 
L 125.689982 87.299884 
L 124.563922 88.187897 
L 123.436646 89.171545 
L 122.308234 90.249798 
L 121.178763 91.42144 
L 120.048308 92.685078 
L 118.916943 94.039139 
L 117.78474 95.48188 
L 116.651767 97.011388 
L 115.51809 98.625586 
L 114.383773 100.322239 
L 113.248876 102.098958 
L 112.113456 103.953206 
L 110.977566 105.882304 
L 109.841255 107.883439 
L 108.70457 109.953669 
L 107.567552 112.08993 
L 106.430237 114.289044 
L 105.292659 116.547726 
L 104.154847 118.862593 
L 103.016823 121.230167 
L 101.878607 123.64689 
L 100.740214 126.109128 
L 99.601652 128.613177 
L 98.462927 131.155276 
L 97.324037 133.731613 
L 96.184977 136.338333 
L 95.045738 138.971545 
L 93.906303 141.627335 
L 92.766652 144.301768 
L 91.626761 146.9909 
L 90.486598 149.690788 
L 89.34613 152.397491 
L 88.205317 155.107084 
L 87.064115 157.815664 
L 85.922474 160.519358 
L 84.780343 163.214327 
L 83.637663 165.896779 
L 82.494374 168.562971 
L 81.350409 171.209219 
L 80.2057 173.831902 
L 79.060173 176.427471 
L 77.913753 178.992455 
L 76.766359 181.523463 
L 75.61791 184.017196 
" clip-path="url(#p0917596ccc)" style="fill: none; stroke: #000000; stroke-width: 0.5"/>
    <path d="M 131.299239 84.317378 
L 131.299239 84.317378 
L 131.299239 84.317378 
L 131.299239 84.317378 
L 131.299239 84.317378 
L 131.299239 84.317378 
L 131.299239 84.317378 
L 131.299239 84.317378 
L 131.299239 84.317378 
L 131.299239 84.317378 
L 131.299239 84.317378 
L 131.299239 84.317378 
L 131.299239 84.317378 
L 131.299239 84.317378 
L 131.299239 84.317378 
L 131.299239 84.317378 
L 131.299239 84.317378 
L 131.299239 84.317378 
L 131.299239 84.317378 
L 131.299239 84.317378 
L 131.299239 84.317378 
L 131.299239 84.317378 
L 131.299239 84.317378 
L 131.299239 84.317378 
L 131.299239 84.317378 
L 131.299239 84.317378 
L 131.299239 84.317378 
L 131.299239 84.317378 
L 131.299239 84.317378 
L 131.299239 84.317378 
L 131.299239 84.317378 
L 131.299239 84.317378 
L 131.299239 84.317378 
L 131.299239 84.317378 
L 131.299239 84.317378 
L 131.299239 84.317378 
L 131.299239 84.317378 
L 131.299239 84.317378 
L 131.299239 84.317378 
L 131.299239 84.317378 
L 131.299239 84.317378 
L 131.299239 84.317378 
L 131.299239 84.317378 
L 131.299239 84.317378 
L 131.299239 84.317378 
L 131.299239 84.317378 
L 131.299239 84.317378 
L 131.299239 84.317378 
L 131.299239 84.317378 
L 131.299239 84.317378 
" clip-path="url(#p0917596ccc)" style="fill: none; stroke: #000000; stroke-width: 0.5"/>
    <path d="M 129.06007 85.217181 
L 129.364314 85.301669 
L 129.700491 85.373195 
L 130.063065 85.430571 
L 130.446056 85.472845 
L 130.843144 85.499314 
L 131.247768 85.509538 
L 131.653242 85.503347 
L 132.052866 85.480843 
L 132.440039 85.442402 
L 132.808367 85.388662 
L 133.151775 85.320515 
L 133.464606 85.239094 
L 133.741715 85.145747 
L 133.978555 85.042021 
L 134.171251 84.929633 
L 134.316661 84.810438 
L 134.412431 84.686403 
L 134.457025 84.55957 
L 134.449752 84.432026 
L 134.390775 84.305864 
L 134.281103 84.183151 
L 134.122573 84.065896 
L 133.917817 83.956014 
L 133.670218 83.855298 
L 133.383853 83.765389 
L 133.063423 83.687749 
L 132.714179 83.623641 
L 132.341834 83.574105 
L 131.952474 83.539945 
L 131.552454 83.521716 
L 131.148303 83.519713 
L 130.746615 83.533968 
L 130.353943 83.56425 
L 129.976698 83.610069 
L 129.621042 83.67068 
L 129.292793 83.7451 
L 128.997327 83.832119 
L 128.739492 83.930323 
L 128.52353 84.038111 
L 128.353005 84.153726 
L 128.230746 84.275279 
L 128.158793 84.400783 
L 128.138369 84.528181 
L 128.169851 84.655383 
L 128.252765 84.780297 
L 128.385787 84.900869 
L 128.566768 85.015109 
L 128.79276 85.12113 
L 129.06007 85.217181 
" clip-path="url(#p0917596ccc)" style="fill: none; stroke: #000000; stroke-width: 0.5"/>
    <path d="M 126.814748 86.508352 
L 127.423363 86.678063 
L 128.096267 86.821785 
L 128.822348 86.937107 
L 129.58958 87.022093 
L 130.385233 87.075313 
L 131.196084 87.095871 
L 132.008651 87.083422 
L 132.809419 87.038174 
L 133.585079 86.96089 
L 134.322754 86.85287 
L 135.010222 86.715928 
L 135.636119 86.552363 
L 136.190137 86.364913 
L 136.663191 86.156709 
L 137.047569 85.931222 
L 137.337053 85.692199 
L 137.527018 85.443601 
L 137.614495 85.189534 
L 137.598216 84.934181 
L 137.478617 84.681734 
L 137.257826 84.436321 
L 136.939611 84.201943 
L 136.529316 83.982412 
L 136.033759 83.781284 
L 135.461119 83.601811 
L 134.820798 83.446885 
L 134.123267 83.319 
L 133.379894 83.220209 
L 132.602769 83.152096 
L 131.804507 83.115751 
L 130.998053 83.111758 
L 130.196481 83.140178 
L 129.412788 83.200558 
L 128.659693 83.291931 
L 127.949435 83.412832 
L 127.293584 83.561321 
L 126.702855 83.735009 
L 126.186937 83.931099 
L 125.754331 84.146422 
L 125.412214 84.377492 
L 125.166313 84.620555 
L 125.020803 84.871651 
L 124.978232 85.126677 
L 125.03947 85.381449 
L 125.203678 85.631778 
L 125.468318 85.87353 
L 125.829178 86.102704 
L 126.280436 86.315492 
L 126.814748 86.508352 
" clip-path="url(#p0917596ccc)" style="fill: none; stroke: #000000; stroke-width: 0.5"/>
    <path d="M 124.563922 88.187897 
L 125.476942 88.443755 
L 126.487023 88.660505 
L 127.577437 88.834473 
L 128.73005 88.962706 
L 129.925634 89.04302 
L 131.144203 89.074047 
L 132.365366 89.055258 
L 133.568685 88.986973 
L 134.734037 88.870356 
L 135.841972 88.707393 
L 136.874047 88.500853 
L 137.81315 88.254239 
L 138.643789 87.971718 
L 139.352355 87.658053 
L 139.927338 87.318509 
L 140.359511 86.958763 
L 140.642065 86.584801 
L 140.770703 86.20282 
L 140.743689 85.819117 
L 140.561847 85.439986 
L 140.22853 85.071618 
L 139.749533 84.719996 
L 139.132985 84.390808 
L 138.389191 84.089352 
L 137.530457 83.820463 
L 136.570881 83.588436 
L 135.526119 83.396964 
L 134.413139 83.249088 
L 133.249951 83.147151 
L 132.05533 83.092764 
L 130.848529 83.086788 
L 129.648986 83.129316 
L 128.476029 83.219677 
L 127.348582 83.356442 
L 126.284875 83.537445 
L 125.302168 83.759815 
L 124.416473 84.020013 
L 123.642306 84.313886 
L 122.992448 84.636727 
L 122.477731 84.983344 
L 122.10685 85.348138 
L 121.886205 85.725188 
L 121.819775 86.108348 
L 121.909033 86.491339 
L 122.152892 86.867853 
L 122.5477 87.231662 
L 123.087279 87.576716 
L 123.763002 87.897252 
L 124.563922 88.187897 
" clip-path="url(#p0917596ccc)" style="fill: none; stroke: #000000; stroke-width: 0.5"/>
    <path d="M 122.308234 90.249798 
L 123.5256 90.592916 
L 124.873207 90.883686 
L 126.328678 91.117131 
L 127.867702 91.289241 
L 129.464473 91.397052 
L 131.092138 91.438705 
L 132.72329 91.413481 
L 134.330455 91.321815 
L 135.886596 91.165289 
L 137.365596 90.9466 
L 138.742726 90.669505 
L 139.995079 90.338754 
L 141.101967 89.959991 
L 142.045269 89.539654 
L 142.80972 89.08485 
L 143.383151 88.603227 
L 143.75666 88.102836 
L 143.924726 87.591992 
L 143.885255 87.079126 
L 143.639574 86.572649 
L 143.192366 86.080812 
L 142.551546 85.611578 
L 141.728099 85.172494 
L 140.735869 84.770583 
L 139.591309 84.412237 
L 138.313206 84.103126 
L 136.922369 83.848122 
L 135.441301 83.651227 
L 133.893852 83.515523 
L 132.304858 83.443129 
L 130.699768 83.435175 
L 129.104269 83.491783 
L 127.543906 83.612072 
L 126.043706 83.794164 
L 124.627805 84.03521 
L 123.31908 84.33143 
L 122.138803 84.678161 
L 121.106304 85.069922 
L 120.238657 85.50049 
L 119.550391 85.96299 
L 119.053238 86.449991 
L 118.75591 86.953623 
L 118.663922 87.465693 
L 118.779459 87.977818 
L 119.101299 88.481558 
L 119.624786 88.968557 
L 120.341866 89.430685 
L 121.241182 89.860183 
L 122.308234 90.249798 
" clip-path="url(#p0917596ccc)" style="fill: none; stroke: #000000; stroke-width: 0.5"/>
    <path d="M 120.048308 92.685078 
L 121.569871 93.116749 
L 123.25526 93.482688 
L 125.076406 93.776563 
L 127.002768 93.993274 
L 129.001872 94.129044 
L 131.039904 94.181503 
L 133.082327 94.149735 
L 135.094527 94.034294 
L 137.042446 93.837197 
L 138.893215 93.56188 
L 140.615749 93.213127 
L 142.181306 92.796976 
L 143.563989 92.320599 
L 144.741179 91.79216 
L 145.693903 91.220658 
L 146.40712 90.615759 
L 146.869926 89.98762 
L 147.075676 89.346704 
L 147.022036 88.703605 
L 146.710947 88.068864 
L 146.148524 87.4528 
L 145.344895 86.86535 
L 144.313972 86.315912 
L 143.073183 85.813217 
L 141.64315 85.365192 
L 140.047337 84.978863 
L 138.311672 84.660252 
L 136.46413 84.414305 
L 134.534319 84.244823 
L 132.553033 84.15442 
L 130.551807 84.144487 
L 128.562461 84.215177 
L 126.616647 84.365401 
L 124.745388 84.592846 
L 122.978637 84.893998 
L 121.344824 85.264187 
L 119.870436 85.697649 
L 118.5796 86.187599 
L 117.493696 86.726318 
L 116.630992 87.305266 
L 116.006321 87.915195 
L 115.630792 88.546287 
L 115.511558 89.188301 
L 115.65163 89.830737 
L 116.049761 90.462998 
L 116.700398 91.07457 
L 117.593707 91.655206 
L 118.715678 92.195102 
L 120.048308 92.685078 
" clip-path="url(#p0917596ccc)" style="fill: none; stroke: #000000; stroke-width: 0.5"/>
    <path d="M 117.78474 95.48188 
L 119.610268 96.003573 
L 121.633599 96.445974 
L 123.820945 96.801357 
L 126.135469 97.06348 
L 128.537951 97.227726 
L 130.987513 97.291193 
L 133.442387 97.252759 
L 135.860705 97.113102 
L 138.20129 96.874692 
L 140.424431 96.541732 
L 142.492626 96.120075 
L 144.371256 95.617095 
L 146.029201 95.041543 
L 147.439366 94.403363 
L 148.579116 93.713501 
L 149.430608 92.983692 
L 149.981027 92.226242 
L 150.222715 91.453805 
L 150.153206 90.67916 
L 149.775164 89.914999 
L 149.096245 89.173718 
L 148.128875 88.467229 
L 146.889964 87.806776 
L 145.400567 87.202779 
L 143.685491 86.664689 
L 141.77287 86.200861 
L 139.693709 85.818451 
L 137.481396 85.523326 
L 135.171208 85.319991 
L 132.7998 85.211543 
L 130.404679 85.199627 
L 128.023685 85.284426 
L 125.69446 85.464651 
L 123.453924 85.737561 
L 121.337754 86.098992 
L 119.379867 86.543407 
L 117.611919 87.06396 
L 116.062817 87.65258 
L 114.758256 88.300077 
L 113.720282 88.996255 
L 112.96689 89.730059 
L 112.511675 90.489726 
L 112.363523 91.262961 
L 112.526383 92.037127 
L 112.999096 92.799446 
L 113.775321 93.537212 
L 114.843539 94.238015 
L 116.187162 94.889957 
L 117.78474 95.48188 
" clip-path="url(#p0917596ccc)" style="fill: none; stroke: #000000; stroke-width: 0.5"/>
    <path d="M 115.51809 98.625586 
L 117.647273 99.23893 
L 120.008622 99.759231 
L 122.562599 100.177307 
L 125.266014 100.485741 
L 128.07282 100.679034 
L 130.934979 100.753731 
L 133.803383 100.708495 
L 136.628805 100.544136 
L 139.362847 100.263593 
L 141.958874 99.871872 
L 144.372898 99.375931 
L 146.564386 98.784535 
L 148.496989 98.108066 
L 150.139155 97.358312 
L 151.464634 96.548221 
L 152.452856 95.691651 
L 153.089188 94.803106 
L 153.365062 93.89747 
L 153.277994 92.989742 
L 152.831484 92.094785 
L 152.034828 91.227087 
L 150.902838 90.400535 
L 149.455489 89.628217 
L 147.717503 88.922232 
L 145.71789 88.293535 
L 143.48944 87.751797 
L 141.068194 87.305287 
L 138.49289 86.960774 
L 135.804391 86.723454 
L 133.045109 86.596893 
L 130.258414 86.582989 
L 127.488048 86.681948 
L 124.777534 86.892289 
L 122.169582 87.210853 
L 119.705504 87.632841 
L 117.424634 88.151864 
L 115.363751 88.760014 
L 113.556524 89.447956 
L 112.032971 90.205037 
L 110.818949 91.019426 
L 109.93568 91.878263 
L 109.399321 92.767839 
L 109.220596 93.673793 
L 109.404498 94.581334 
L 109.95007 95.475472 
L 110.850289 96.341272 
L 112.092049 97.164111 
L 113.656264 97.929948 
L 115.51809 98.625586 
" clip-path="url(#p0917596ccc)" style="fill: none; stroke: #000000; stroke-width: 0.5"/>
    <path d="M 113.248876 102.098958 
L 115.68133 102.805733 
L 118.380695 103.405497 
L 121.301649 103.887561 
L 124.394596 104.243278 
L 127.606582 104.466237 
L 130.882313 104.552406 
L 134.165236 104.500222 
L 137.398656 104.310632 
L 140.526858 103.987068 
L 143.496198 103.535365 
L 146.256139 102.963639 
L 148.760199 102.282094 
L 150.966789 101.502807 
L 152.839925 100.639466 
L 154.349791 99.707085 
L 155.473168 98.721704 
L 156.193695 97.700077 
L 156.502004 96.659361 
L 156.395702 95.61681 
L 155.879236 94.589484 
L 154.963641 93.593977 
L 153.666202 92.64616 
L 152.010021 91.760958 
L 150.023531 90.952145 
L 147.739953 90.232166 
L 145.196722 89.61199 
L 142.434874 89.100981 
L 139.49843 88.706797 
L 136.433756 88.435308 
L 133.288917 88.290541 
L 130.113037 88.274637 
L 126.955646 88.38783 
L 123.866033 88.628447 
L 120.892595 88.992924 
L 118.082192 89.475837 
L 115.479501 90.069964 
L 113.126378 90.766349 
L 111.061231 91.554409 
L 109.318409 92.422049 
L 107.927614 93.355806 
L 106.913352 94.341021 
L 106.294424 95.362035 
L 106.083488 96.402409 
L 106.286688 97.445174 
L 106.903384 98.473097 
L 107.925977 99.468969 
L 109.339872 100.415907 
L 111.123566 101.297669 
L 113.248876 102.098958 
" clip-path="url(#p0917596ccc)" style="fill: none; stroke: #000000; stroke-width: 0.5"/>
    <path d="M 110.977566 105.882304 
L 113.712843 106.684426 
L 116.750147 107.365332 
L 120.038351 107.91277 
L 123.521392 108.316816 
L 127.139332 108.570106 
L 130.829526 108.668004 
L 134.527873 108.608717 
L 138.170106 108.39333 
L 141.69309 108.025789 
L 145.036092 107.512799 
L 148.141964 106.863674 
L 150.958241 106.090117 
L 153.43809 105.205961 
L 155.541115 104.22686 
L 157.233991 103.16996 
L 158.49092 102.053542 
L 159.293914 100.896665 
L 159.632907 99.718807 
L 159.50571 98.539515 
L 158.917825 97.378074 
L 157.882129 96.2532 
L 156.418458 95.182757 
L 154.553106 94.183509 
L 152.318253 93.270895 
L 149.751344 92.45884 
L 146.894441 91.759596 
L 143.793535 91.183607 
L 140.497863 90.739403 
L 137.059206 90.433518 
L 133.531188 90.270427 
L 129.968571 90.25251 
L 126.42656 90.380029 
L 122.960098 90.651123 
L 119.623166 91.061829 
L 116.468079 91.606115 
L 113.54479 92.275936 
L 110.900181 93.061309 
L 108.57738 93.950416 
L 106.615068 94.929729 
L 105.046824 95.984165 
L 103.900492 97.097268 
L 103.1976 98.251421 
L 102.952832 99.428094 
L 103.173593 100.608113 
L 103.859666 101.771965 
L 105.002991 102.900126 
L 106.58758 103.973399 
L 108.589591 104.973277 
L 110.977566 105.882304 
" clip-path="url(#p0917596ccc)" style="fill: none; stroke: #000000; stroke-width: 0.5"/>
    <path d="M 108.70457 109.953669 
L 111.742164 110.853171 
L 115.117271 111.617003 
L 118.772927 112.231286 
L 122.646554 112.684768 
L 126.671151 112.969091 
L 130.776629 113.078993 
L 134.891232 113.012435 
L 138.943017 112.770653 
L 142.861337 112.358124 
L 146.578282 111.782461 
L 150.030037 111.054226 
L 153.158117 110.186679 
L 155.910444 109.195475 
L 158.242236 108.098303 
L 160.11671 106.914505 
L 161.505569 105.664671 
L 162.38929 104.370223 
L 162.75722 103.053008 
L 162.607484 101.734905 
L 161.946745 100.437455 
L 160.789818 99.181516 
L 159.159176 97.986955 
L 157.084362 96.872375 
L 154.601338 95.854876 
L 151.751785 94.949853 
L 148.582371 94.170828 
L 145.144002 93.529308 
L 141.491064 93.034683 
L 137.680668 92.694136 
L 133.771893 92.512584 
L 129.825033 92.49264 
L 125.900854 92.63459 
L 122.059841 92.936394 
L 118.361455 93.393697 
L 114.863379 93.999869 
L 111.620766 94.746056 
L 108.685481 95.621263 
L 106.105341 96.612452 
L 103.923366 97.704674 
L 102.17704 98.881231 
L 100.897602 100.12387 
L 100.109378 101.41301 
L 99.829175 102.728009 
L 100.065765 104.047464 
L 100.819466 105.349547 
L 102.081862 106.612366 
L 103.835672 107.814356 
L 106.0548 108.934686 
L 108.70457 109.953669 
" clip-path="url(#p0917596ccc)" style="fill: none; stroke: #000000; stroke-width: 0.5"/>
    <path d="M 106.430237 114.289044 
L 109.769595 115.288059 
L 113.482313 116.136687 
L 117.505568 116.819357 
L 121.770213 117.323435 
L 126.202109 117.639529 
L 130.723628 117.761722 
L 135.255258 117.68772 
L 139.717276 117.418914 
L 144.031424 116.960338 
L 148.122536 116.320548 
L 151.92007 115.511408 
L 155.359492 114.547797 
L 158.383472 113.447257 
L 160.942872 112.229584 
L 162.997507 110.91639 
L 164.516657 109.530635 
L 165.479362 108.096165 
L 165.874487 106.637251 
L 165.700582 105.178145 
L 164.965578 103.742674 
L 163.686325 102.353859 
L 161.88801 101.033581 
L 159.603484 99.802286 
L 156.872526 98.678731 
L 153.74106 97.67977 
L 150.260341 96.820182 
L 146.486144 96.112527 
L 142.47794 95.567037 
L 138.298084 95.191533 
L 134.011011 94.991367 
L 129.682437 94.969379 
L 125.378576 95.125881 
L 121.165346 95.458653 
L 117.107584 95.962959 
L 113.268253 96.63158 
L 109.707635 97.454871 
L 106.482525 98.420834 
L 103.645407 99.515226 
L 101.24364 100.721687 
L 99.31864 102.021911 
L 97.905091 103.395845 
L 97.030195 104.821935 
L 96.712974 106.277412 
L 96.963669 107.738613 
L 97.783244 109.181353 
L 99.163036 110.581327 
L 101.084572 111.914542 
L 103.519583 113.157777 
L 106.430237 114.289044 
" clip-path="url(#p0917596ccc)" style="fill: none; stroke: #000000; stroke-width: 0.5"/>
    <path d="M 104.154847 118.862593 
L 107.795376 119.963336 
L 111.845471 120.898699 
L 116.236427 121.651357 
L 120.892475 122.207236 
L 125.732262 122.555866 
L 130.67053 122.690647 
L 135.619909 122.609021 
L 140.492791 122.312538 
L 145.203211 121.806814 
L 149.668667 121.101391 
L 153.811834 120.209484 
L 157.562095 119.147655 
L 160.856869 117.935405 
L 163.642692 116.594709 
L 165.876028 115.14952 
L 167.523819 113.625241 
L 168.563763 112.048203 
L 168.984347 110.44515 
L 168.78466 108.842755 
L 167.974005 107.267161 
L 166.571359 105.743575 
L 164.604703 104.295904 
L 162.110252 102.946439 
L 159.131634 101.715591 
L 155.719018 100.621666 
L 151.928233 99.680686 
L 147.819874 98.906249 
L 143.458432 98.30942 
L 138.911419 97.898646 
L 134.248528 97.679702 
L 129.540791 97.655652 
L 124.859757 97.826833 
L 120.276667 98.19085 
L 115.861636 98.742593 
L 111.682812 99.474266 
L 107.805539 100.375442 
L 104.29149 101.433139 
L 101.197792 102.631918 
L 98.576138 103.954019 
L 96.471905 105.37953 
L 94.923273 106.886602 
L 93.96039 108.451696 
L 93.604584 110.049893 
L 93.86767 111.655245 
L 94.751366 113.241168 
L 96.246871 114.780891 
L 98.334619 116.247937 
L 100.984253 117.616623 
L 104.154847 118.862593 
" clip-path="url(#p0917596ccc)" style="fill: none; stroke: #000000; stroke-width: 0.5"/>
    <path d="M 101.878607 123.64689 
L 105.819687 124.851638 
L 110.206893 125.87573 
L 114.965617 126.70002 
L 120.013416 127.308938 
L 125.261652 127.69089 
L 130.617342 127.838566 
L 135.985154 127.74913 
L 141.269494 127.4243 
L 146.376595 126.870299 
L 151.216539 126.097692 
L 155.705158 125.121104 
L 159.765725 123.958844 
L 163.330409 122.632444 
L 166.341447 121.166135 
L 168.752014 119.586284 
L 170.52679 117.920808 
L 171.642227 116.198585 
L 172.086545 114.44889 
L 171.859476 112.700856 
L 170.971804 110.982978 
L 169.444726 109.322671 
L 167.309088 107.74588 
L 164.604528 106.276746 
L 161.378551 104.937329 
L 157.685578 103.747376 
L 153.585986 102.724145 
L 149.145151 101.882258 
L 144.432511 101.233597 
L 139.520658 100.787224 
L 134.48444 100.549331 
L 129.4001 100.523201 
L 124.34441 100.709194 
L 119.39383 101.104745 
L 114.623647 101.704376 
L 110.107112 102.499725 
L 105.914557 103.479599 
L 102.11248 104.63004 
L 98.762626 105.934429 
L 95.921022 107.373614 
L 93.637026 108.926085 
L 91.952364 110.56819 
L 90.900201 112.274398 
L 90.504261 114.017621 
L 90.778033 115.769593 
L 91.724101 117.501292 
L 93.333631 119.183431 
L 95.586064 120.786981 
L 98.449043 122.283735 
L 101.878607 123.64689 
" clip-path="url(#p0917596ccc)" style="fill: none; stroke: #000000; stroke-width: 0.5"/>
    <path d="M 99.601652 128.613177 
L 103.842642 129.924243 
L 108.566673 131.039094 
L 113.693209 131.936692 
L 119.133086 132.59991 
L 124.790305 133.015987 
L 130.564065 133.176869 
L 136.350973 133.079434 
L 142.047343 132.725573 
L 147.55151 132.122143 
L 152.766063 131.280774 
L 157.599933 130.217556 
L 161.970255 128.952614 
L 165.803949 127.509583 
L 169.038983 125.915028 
L 171.625301 124.197806 
L 173.525401 122.388418 
L 174.714591 120.518356 
L 175.180927 118.619479 
L 174.924895 116.723426 
L 173.958859 114.861076 
L 172.306328 113.062073 
L 170.001093 111.354413 
L 167.086262 109.76409 
L 163.613246 108.31481 
L 159.640724 107.027755 
L 155.233597 105.921403 
L 150.461977 105.011386 
L 145.400186 104.310393 
L 140.125806 103.828089 
L 134.71875 103.571074 
L 129.260361 103.542844 
L 123.832531 103.743785 
L 118.516827 104.171162 
L 113.393614 104.819139 
L 108.541156 105.678799 
L 104.0347 106.738192 
L 99.945523 107.982401 
L 96.339955 109.393638 
L 93.278358 110.95137 
L 90.814092 112.632493 
L 88.992476 114.411551 
L 87.849762 116.261011 
L 87.412155 118.151597 
L 87.69492 120.052693 
L 88.701615 121.932799 
L 90.423481 123.760057 
L 92.839068 125.502829 
L 95.9141 127.13031 
L 99.601652 128.613177 
" clip-path="url(#p0917596ccc)" style="fill: none; stroke: #000000; stroke-width: 0.5"/>
    <path d="M 97.324037 133.731613 
L 101.864289 135.151332 
L 106.924848 136.35899 
L 112.419232 137.331586 
L 118.251505 138.050379 
L 124.31823 138.501389 
L 130.510701 138.675794 
L 136.717358 138.570168 
L 142.826322 138.186587 
L 148.727932 137.532564 
L 154.317204 136.620839 
L 159.496115 135.469025 
L 164.175632 134.09913 
L 168.277427 132.536969 
L 171.735233 130.811518 
L 174.495822 128.954202 
L 176.519592 126.998178 
L 177.780801 124.977615 
L 178.267449 122.927013 
L 177.980885 120.880559 
L 176.935155 118.871549 
L 175.156171 116.931881 
L 172.680738 115.09161 
L 169.555487 113.378587 
L 165.835766 111.818159 
L 161.584507 110.432933 
L 156.87112 109.242596 
L 151.770402 108.263777 
L 146.361495 107.509957 
L 140.726891 106.991393 
L 134.951468 106.715083 
L 129.121568 106.684736 
L 123.324096 106.900758 
L 117.645624 107.360251 
L 112.171492 108.057027 
L 106.984891 108.981625 
L 102.165916 110.121353 
L 97.790572 111.460348 
L 93.929744 112.979664 
L 90.648124 114.657398 
L 88.003098 116.468858 
L 86.043621 118.386784 
L 84.809099 120.38163 
L 84.328307 122.421915 
L 84.618386 124.474642 
L 85.68397 126.505792 
L 87.516489 128.480886 
L 90.093696 130.365609 
L 93.379489 132.126491 
L 97.324037 133.731613 
" clip-path="url(#p0917596ccc)" style="fill: none; stroke: #000000; stroke-width: 0.5"/>
    <path d="M 95.045738 138.971545 
L 99.884607 140.502247 
L 105.2814 141.80476 
L 111.143671 142.854047 
L 117.36866 143.62969 
L 123.845423 144.116446 
L 130.457251 144.304688 
L 137.084316 144.190681 
L 143.606441 143.776687 
L 149.905875 143.070906 
L 155.869982 142.08723 
L 161.393726 140.844854 
L 166.38188 139.367737 
L 170.75087 137.683953 
L 174.430228 135.824966 
L 177.363612 133.824846 
L 179.509403 131.719479 
L 180.840906 129.545777 
L 181.346173 127.340933 
L 181.027521 125.141727 
L 179.90078 122.983905 
L 177.994355 120.901635 
L 175.348135 118.927045 
L 172.012325 117.089843 
L 168.046232 115.417014 
L 163.517048 113.932577 
L 158.498664 112.657416 
L 153.07052 111.609143 
L 147.316513 110.802016 
L 141.32396 110.246874 
L 135.182614 109.951105 
L 128.983713 109.918622 
L 122.819068 110.149854 
L 116.780154 110.641743 
L 110.957191 111.387757 
L 105.438213 112.377901 
L 100.30809 113.598755 
L 95.647505 115.033524 
L 91.531872 116.66212 
L 88.030206 118.461279 
L 85.203938 120.404727 
L 83.105706 122.463401 
L 81.778136 124.605735 
L 81.252654 126.798024 
L 81.548377 129.004862 
L 82.671125 131.189669 
L 84.612618 133.315292 
L 87.34992 135.344683 
L 90.845181 137.241631 
L 95.045738 138.971545 
" clip-path="url(#p0917596ccc)" style="fill: none; stroke: #000000; stroke-width: 0.5"/>
    <path d="M 92.766652 144.301768 
L 97.903504 145.945761 
L 103.636253 147.345157 
L 109.866464 148.472815 
L 116.48451 149.306575 
L 123.37186 149.829883 
L 130.403711 150.032278 
L 137.451865 149.909698 
L 144.38774 149.464605 
L 151.085398 148.705906 
L 157.42447 147.648696 
L 163.292854 146.313809 
L 168.589099 144.727224 
L 173.224391 142.919351 
L 177.124091 140.924222 
L 180.228804 138.77863 
L 182.494978 136.521261 
L 183.895062 134.191835 
L 184.417267 131.83029 
L 184.064984 129.476042 
L 182.855927 127.167316 
L 180.821081 124.940571 
L 178.003489 122.830015 
L 174.456979 120.867214 
L 170.244841 119.080783 
L 165.43853 117.496145 
L 160.116393 116.135363 
L 154.362468 115.017019 
L 148.265343 114.156133 
L 141.91708 113.564114 
L 135.412213 113.24873 
L 128.846778 113.214094 
L 122.31739 113.460657 
L 115.920322 113.985206 
L 109.750582 114.780871 
L 103.900963 115.837137 
L 98.461043 117.139868 
L 93.516129 118.671353 
L 89.146137 120.410375 
L 85.4244 122.332324 
L 82.416415 124.409352 
L 80.178541 126.610592 
L 78.75669 128.902454 
L 78.185025 131.24899 
L 78.484736 133.612359 
L 79.662933 135.953383 
L 81.711734 138.232182 
L 84.607614 140.408912 
L 88.311064 142.444554 
L 92.766652 144.301768 
" clip-path="url(#p0917596ccc)" style="fill: none; stroke: #000000; stroke-width: 0.5"/>
    <path d="M 90.486598 149.690788 
L 95.920822 151.450335 
L 101.989272 152.948609 
L 108.587507 154.15629 
L 115.598981 155.049415 
L 122.897501 155.610069 
L 130.350079 155.826926 
L 137.820036 155.695587 
L 145.170283 155.218716 
L 152.266597 154.405961 
L 158.980795 153.273658 
L 165.193652 151.844342 
L 170.797467 150.146086 
L 175.698187 148.21171 
L 179.817037 146.077893 
L 183.091631 143.784229 
L 185.476565 141.372276 
L 186.943532 138.88462 
L 187.481005 136.364002 
L 187.093556 133.852512 
L 185.800885 131.390881 
L 183.636641 129.017877 
L 180.647092 126.769795 
L 176.889733 124.680058 
L 172.431864 122.7789 
L 167.3492 121.093137 
L 161.724524 119.645997 
L 155.646426 118.457013 
L 149.208121 117.541953 
L 142.506338 116.912783 
L 135.640301 116.577642 
L 128.710745 116.540837 
L 121.818989 116.802842 
L 115.066006 117.360291 
L 108.551499 118.205986 
L 102.372936 119.328903 
L 96.624535 120.714207 
L 91.39618 122.343284 
L 86.772259 124.193807 
L 82.830418 126.23983 
L 79.640233 128.451942 
L 77.261833 130.797478 
L 75.744476 133.240816 
L 75.125146 135.743752 
L 75.427199 138.265987 
L 76.659143 140.765702 
L 78.813602 143.200248 
L 81.866559 145.526919 
L 85.776936 147.703821 
L 90.486598 149.690788 
" clip-path="url(#p0917596ccc)" style="fill: none; stroke: #000000; stroke-width: 0.5"/>
    <path d="M 88.205317 155.107084 
L 93.936333 156.984384 
L 100.340268 158.583478 
L 107.306653 159.872793 
L 114.71197 160.826501 
L 122.422293 161.425279 
L 130.296347 161.656901 
L 138.188874 161.516618 
L 145.954163 161.007307 
L 153.449611 160.139381 
L 160.539139 158.930466 
L 167.09634 157.404855 
L 173.007236 155.592785 
L 178.172539 153.529564 
L 182.509373 151.254597 
L 185.95242 148.810354 
L 188.454509 146.241335 
L 189.986675 143.593057 
L 190.537758 140.911109 
L 190.113619 138.240292 
L 188.73604 135.623874 
L 186.44142 133.102941 
L 183.279319 130.715884 
L 179.310947 128.497977 
L 174.607639 126.481066 
L 169.249365 124.693339 
L 163.323323 123.159176 
L 156.922613 121.899044 
L 150.14501 120.929443 
L 143.091838 120.26288 
L 135.866917 119.907857 
L 128.57559 119.868871 
L 121.323777 120.146414 
L 114.217058 120.736975 
L 107.359737 121.633037 
L 100.853877 122.823077 
L 94.79827 124.291577 
L 89.287329 126.01904 
L 84.409883 127.982043 
L 80.247886 130.153323 
L 76.875013 132.501914 
L 74.355199 134.993361 
L 72.741114 137.590005 
L 72.072641 140.251379 
L 72.375403 142.934696 
L 73.659407 145.595469 
L 75.91789 148.188224 
L 79.126444 150.667343 
L 83.24251 152.987985 
L 88.205317 155.107084 
" clip-path="url(#p0917596ccc)" style="fill: none; stroke: #000000; stroke-width: 0.5"/>
    <path d="M 85.922474 160.519358 
L 91.949746 162.516527 
L 98.688997 164.218312 
L 106.023708 165.59082 
L 113.823343 166.606291 
L 121.946162 167.243945 
L 130.242509 167.490626 
L 138.558433 167.341221 
L 146.739499 166.798828 
L 154.634618 165.874653 
L 162.099733 164.587655 
L 169.001199 162.963947 
L 175.218731 161.036 
L 180.64781 158.841686 
L 185.201493 156.423213 
L 188.811593 153.826004 
L 191.429254 151.097567 
L 193.02495 148.286407 
L 193.587998 145.441011 
L 193.12565 142.608928 
L 191.661869 139.835981 
L 189.235888 137.165593 
L 185.900627 134.638246 
L 181.721058 132.29106 
L 176.772567 130.157481 
L 171.139387 128.267056 
L 164.913104 126.645294 
L 158.191284 125.313578 
L 151.076203 124.289124 
L 143.6737 123.584965 
L 136.09211 123.209955 
L 128.441285 123.168776 
L 120.831653 123.461939 
L 113.373304 124.08579 
L 106.175055 125.032502 
L 99.343487 126.29007 
L 92.981899 127.842306 
L 87.189182 129.668849 
L 82.058583 131.745201 
L 77.676354 134.042796 
L 74.120287 136.52913 
L 71.458164 139.167963 
L 69.746127 141.919603 
L 69.027041 144.741306 
L 69.328887 147.587783 
L 70.66328 150.41184 
L 73.024172 153.16514 
L 76.386868 155.799093 
L 80.707415 158.265845 
L 85.922474 160.519358 
" clip-path="url(#p0917596ccc)" style="fill: none; stroke: #000000; stroke-width: 0.5"/>
    <path d="M 83.637663 165.896779 
L 89.960705 168.015832 
L 97.03516 169.822098 
L 104.738441 171.279289 
L 112.932939 172.357656 
L 121.469023 173.034909 
L 130.188555 173.29693 
L 138.928784 173.138232 
L 147.526436 172.562141 
L 155.821835 171.580682 
L 163.662861 170.214193 
L 170.908572 168.490666 
L 177.432348 166.444875 
L 183.124441 164.117333 
L 187.893875 161.553127 
L 191.669658 158.800703 
L 194.40133 155.910647 
L 196.058907 152.934507 
L 196.632285 149.92371 
L 196.130213 146.928588 
L 194.578932 143.997538 
L 192.020595 141.176327 
L 188.511547 138.507529 
L 184.120564 136.030102 
L 178.927112 133.779073 
L 173.01968 131.785332 
L 166.494223 130.075496 
L 159.452728 128.671844 
L 152.001915 127.592288 
L 144.252062 126.850374 
L 136.315933 126.455298 
L 128.307799 126.411916 
L 120.342503 126.720762 
L 112.534549 127.378042 
L 104.997185 128.375629 
L 97.841428 129.70105 
L 91.175022 131.337465 
L 85.10129 133.26367 
L 79.717868 135.454109 
L 75.115299 137.878936 
L 71.37551 140.504124 
L 68.570169 143.291658 
L 66.758951 146.199819 
L 65.987782 149.183577 
L 66.287099 152.195125 
L 67.670223 155.184532 
L 70.131934 158.100558 
L 73.647346 160.891586 
L 78.171202 163.506687 
L 83.637663 165.896779 
" clip-path="url(#p0917596ccc)" style="fill: none; stroke: #000000; stroke-width: 0.5"/>
    <path d="M 81.350409 171.209219 
L 87.968793 173.452053 
L 95.378409 175.364492 
L 103.450579 176.907781 
L 112.040569 178.050118 
L 120.990773 178.767658 
L 130.134474 179.045288 
L 139.300005 178.877135 
L 148.315141 178.266757 
L 157.011513 177.227031 
L 165.228853 175.779714 
L 172.81886 173.954739 
L 179.648547 171.789251 
L 185.602944 169.326476 
L 190.587076 166.614456 
L 194.527205 163.704733 
L 197.371356 160.651029 
L 199.089182 157.507992 
L 199.671264 154.33003 
L 199.127954 151.170284 
L 197.487869 148.079744 
L 194.796166 145.106525 
L 191.112677 142.295289 
L 186.51003 139.686818 
L 181.071791 137.317707 
L 174.890706 135.220162 
L 168.067075 133.42189 
L 160.707267 131.946041 
L 152.922385 130.811206 
L 144.827073 130.031427 
L 136.538444 129.616228 
L 128.175098 129.57064 
L 119.856198 129.895211 
L 111.700578 130.586015 
L 103.825826 131.634637 
L 96.347322 133.028148 
L 89.377194 134.749078 
L 83.02315 136.775398 
L 77.387185 139.080521 
L 72.564131 141.633339 
L 68.640066 144.398322 
L 65.690579 147.335693 
L 63.778942 150.401711 
L 62.954221 153.549061 
L 63.249401 156.727402 
L 64.679617 159.884043 
L 67.240577 162.9648 
L 70.907312 165.914979 
L 75.633346 168.680519 
L 81.350409 171.209219 
" clip-path="url(#p0917596ccc)" style="fill: none; stroke: #000000; stroke-width: 0.5"/>
    <path d="M 79.060173 176.427471 
L 85.97354 178.795853 
L 93.718349 180.816044 
L 102.159814 182.446757 
L 111.146016 183.654076 
L 120.511297 184.41255 
L 130.080253 184.706044 
L 139.672187 184.528281 
L 149.105805 183.883064 
L 158.20394 182.784144 
L 166.798084 181.254747 
L 174.732515 179.326799 
L 181.867853 177.039887 
L 188.083903 174.440022 
L 193.281726 171.578274 
L 197.384903 168.509346 
L 200.340027 165.29016 
L 202.116487 161.978511 
L 202.705657 158.631826 
L 202.119595 155.30608 
L 200.389392 152.054869 
L 197.563289 148.928656 
L 193.704676 145.974185 
L 188.890073 143.234046 
L 183.207168 140.746378 
L 176.752966 138.544686 
L 169.632089 136.657736 
L 161.955247 135.109532 
L 153.837869 133.919318 
L 145.398897 133.101617 
L 136.759708 132.666269 
L 128.043144 132.61847 
L 119.372603 132.958787 
L 110.871157 133.683165 
L 102.660653 134.78291 
L 94.860763 136.244653 
L 87.587933 138.050317 
L 80.954213 140.177069 
L 75.065931 142.597315 
L 70.022203 145.278709 
L 65.91327 148.184239 
L 62.818688 151.272386 
L 60.805381 154.497394 
L 59.925635 157.809666 
L 60.215078 161.156313 
L 61.69076 164.481868 
L 64.349428 167.729165 
L 68.166127 170.84039 
L 73.093252 173.758285 
L 79.060173 176.427471 
" clip-path="url(#p0917596ccc)" style="fill: none; stroke: #000000; stroke-width: 0.5"/>
    <path d="M 76.766359 181.523463 
L 83.97442 184.019012 
L 92.054543 186.148414 
L 100.865801 187.86778 
L 110.249043 189.141019 
L 120.030466 189.941032 
L 130.025878 190.250624 
L 140.045431 190.063109 
L 149.898642 189.382539 
L 159.399435 188.223564 
L 168.37097 186.610923 
L 176.650044 184.578595 
L 184.090845 182.168672 
L 190.567961 179.430022 
L 195.978521 176.416812 
L 200.243489 173.186971 
L 203.308108 169.80068 
L 205.141606 166.318922 
L 205.736255 162.802181 
L 205.105924 159.309285 
L 203.284274 155.896443 
L 200.322715 152.616466 
L 196.288257 149.518166 
L 191.261359 146.645923 
L 185.333852 144.0394 
L 178.606998 141.733368 
L 171.189725 139.757632 
L 163.19704 138.13702 
L 154.748644 136.891409 
L 145.967706 136.035786 
L 136.979791 135.580293 
L 127.911898 135.530284 
L 118.891572 135.886343 
L 110.046037 136.644293 
L 101.50132 137.795172 
L 93.381311 139.325191 
L 85.806718 141.21568 
L 78.893887 143.443034 
L 72.753455 145.978673 
L 67.488812 148.789043 
L 63.194384 151.835673 
L 59.953728 155.075321 
L 57.837483 158.460231 
L 56.901233 161.938528 
L 57.183343 165.454774 
L 58.702882 168.9507 
L 61.457741 172.366133 
L 65.423083 175.640095 
L 70.550264 178.712079 
L 76.766359 181.523463 
" clip-path="url(#p0917596ccc)" style="fill: none; stroke: #000000; stroke-width: 0.5"/>
    <path d="M 75.61791 184.017196 
L 82.973234 186.576887 
L 91.221086 188.7614 
L 100.217462 190.52552 
L 109.799567 191.832049 
L 119.7895 192.653042 
L 129.998628 192.970767 
L 140.232485 192.778325 
L 150.295947 192.079897 
L 159.998439 190.890594 
L 169.158925 189.235926 
L 177.61043 187.150918 
L 185.203919 184.678942 
L 191.811369 181.870318 
L 197.327957 178.780787 
L 201.673362 175.469916 
L 204.792184 171.999532 
L 206.653608 168.432232 
L 207.250394 164.830037 
L 206.597358 161.253209 
L 204.729481 157.759265 
L 201.699789 154.402188 
L 197.577126 151.231817 
L 192.443937 148.293422 
L 186.394133 145.627415 
L 179.531106 143.269191 
L 171.965926 141.249065 
L 163.815738 139.592264 
L 155.202355 138.318976 
L 146.251036 137.444409 
L 137.089411 136.978856 
L 127.846528 136.927743 
L 118.65197 137.291664 
L 109.635009 138.066383 
L 100.923731 139.242809 
L 92.644108 140.806948 
L 84.918959 142.739844 
L 77.86676 145.017513 
L 71.600293 147.610895 
L 66.225087 150.485842 
L 61.837663 153.603163 
L 58.523593 156.918764 
L 56.355398 160.383895 
L 55.390338 163.945544 
L 55.668184 167.546997 
L 57.209052 171.128584 
L 60.011447 174.628613 
L 64.050627 177.984511 
L 69.277463 181.134127 
L 75.61791 184.017196 
" clip-path="url(#p0917596ccc)" style="fill: none; stroke: #2196F3; stroke-width: 1.5"/>
   </g>
  </g>
 </g>
 <defs>
  <clipPath id="p0917596ccc">
   <rect x="0" y="-0" width="255.5784" height="255.5784"/>
  </clipPath>
 </defs>
</svg>
