<?xml version="1.0" encoding="utf-8" standalone="no"?>
<!DOCTYPE svg PUBLIC "-//W3C//DTD SVG 1.1//EN"
  "http://www.w3.org/Graphics/SVG/1.1/DTD/svg11.dtd">
<svg xmlns:xlink="http://www.w3.org/1999/xlink" width="720pt" height="332pt" viewBox="200 180 450 115" xmlns="http://www.w3.org/2000/svg" version="1.1">
 <metadata>
  <rdf:RDF xmlns:dc="http://purl.org/dc/elements/1.1/" xmlns:cc="http://creativecommons.org/ns#" xmlns:rdf="http://www.w3.org/1999/02/22-rdf-syntax-ns#">
   <cc:Work>
    <dc:type rdf:resource="http://purl.org/dc/dcmitype/StillImage"/>
    <dc:date>2024-12-30T23:25:09.521680</dc:date>
    <dc:format>image/svg+xml</dc:format>
    <dc:creator>
     <cc:Agent>
      <dc:title>Matplotlib v3.6.3, https://matplotlib.org/</dc:title>
     </cc:Agent>
    </dc:creator>
   </cc:Work>
  </rdf:RDF>
 </metadata>
 <defs>
  <style type="text/css">*{stroke-linejoin: round; stroke-linecap: butt}</style>
 </defs>
 <g id="figure_1">
  <g id="axes_1">
   <g id="Line3DCollection_1">
    <path d="M 230.55236 232.815565 
L 234.036669 233.882358 
L 237.528017 234.951306 
L 241.026424 236.022416 
L 244.531913 237.095694 
L 248.044505 238.171146 
L 251.564222 239.24878 
L 255.091084 240.328601 
L 258.625115 241.410618 
L 262.166335 242.494835 
L 265.714767 243.581261 
L 269.270433 244.669901 
L 272.833355 245.760763 
L 276.403555 246.853853 
L 279.981056 247.949179 
L 283.56588 249.046747 
L 287.158049 250.146563 
L 290.757587 251.248636 
L 294.364515 252.352971 
L 297.978857 253.459576 
L 301.600635 254.568458 
L 305.229872 255.679624 
L 308.866592 256.793081 
L 312.510818 257.908836 
L 316.162573 259.026895 
L 319.82188 260.147268 
L 323.488762 261.269959 
L 327.163244 262.394978 
L 330.845349 263.52233 
L 334.5351 264.652023 
L 338.232522 265.784065 
L 341.937639 266.918463 
L 345.650474 268.055224 
L 349.371051 269.194355 
L 353.099396 270.335865 
L 356.835532 271.47976 
L 360.579483 272.626047 
L 364.331274 273.774736 
L 368.090931 274.925832 
L 371.858477 276.079344 
L 375.633938 277.235279 
L 379.417338 278.393645 
L 383.208702 279.554449 
L 387.008057 280.7177 
L 390.815426 281.883404 
L 394.630836 283.05157 
L 398.454311 284.222206 
L 402.285878 285.395319 
L 406.125563 286.570918 
L 409.97339 287.749009 
L 413.829386 288.929602 
" clip-path="url(#pf5bf449c2c)" style="fill: none; stroke: #2196F3; stroke-width: 2.5"/>
    <path d="M 239.856951 225.483263 
L 243.282284 225.484289 
L 246.716986 225.489472 
L 250.161249 225.502973 
L 253.61524 225.528943 
L 257.07911 225.571504 
L 260.55299 225.634735 
L 264.03699 225.722655 
L 267.531198 225.839204 
L 271.035682 225.988231 
L 274.550489 226.173474 
L 278.075643 226.398545 
L 281.61115 226.666917 
L 285.156993 226.981906 
L 288.713134 227.34666 
L 292.279516 227.764141 
L 295.856065 228.237114 
L 299.442684 228.768139 
L 303.039261 229.359551 
L 306.645667 230.013457 
L 310.261758 230.731722 
L 313.887374 231.515963 
L 317.522342 232.367542 
L 321.166478 233.287554 
L 324.819587 234.276831 
L 328.481465 235.33593 
L 332.1519 236.465135 
L 335.830675 237.664451 
L 339.517568 238.933609 
L 343.212356 240.272064 
L 346.914812 241.678995 
L 350.624712 243.153312 
L 354.341834 244.693661 
L 358.065959 246.298423 
L 361.796876 247.96573 
L 365.534378 249.693467 
L 369.27827 251.479282 
L 373.028365 253.320598 
L 376.784489 255.214622 
L 380.546481 257.158357 
L 384.314194 259.148616 
L 388.087497 261.182034 
L 391.866277 263.255083 
L 395.650436 265.364089 
L 399.439897 267.505243 
L 403.234601 269.674619 
L 407.034511 271.86819 
L 410.839609 274.081846 
L 414.6499 276.31141 
L 418.465407 278.552652 
L 422.28618 280.801312 
" clip-path="url(#pf5bf449c2c)" style="fill: none; stroke: #000000; stroke-width: 1.5"/>
    <path d="M 249.033372 218.251962 
L 252.409115 217.262242 
L 255.796304 216.277276 
L 259.195266 215.305101 
L 262.606289 214.353755 
L 266.029624 213.431239 
L 269.465487 212.545491 
L 272.914053 211.704349 
L 276.375457 210.915516 
L 279.849796 210.186534 
L 283.337123 209.524741 
L 286.837455 208.937247 
L 290.350765 208.430897 
L 293.876989 208.012243 
L 297.416023 207.687511 
L 300.967724 207.462573 
L 304.531915 207.342921 
L 308.108381 207.333637 
L 311.696874 207.439371 
L 315.297114 207.664319 
L 318.908793 208.012199 
L 322.531574 208.486237 
L 326.165095 209.089145 
L 329.808973 209.823113 
L 333.462805 210.689792 
L 337.12617 211.690292 
L 340.798637 212.825167 
L 344.479763 214.094421 
L 348.169096 215.497498 
L 351.866184 217.033293 
L 355.570573 218.700151 
L 359.281811 220.495874 
L 362.999453 222.417736 
L 366.723064 224.462491 
L 370.452222 226.626389 
L 374.186519 228.905198 
L 377.925568 231.294217 
L 381.669003 233.788301 
L 385.416481 236.381887 
L 389.167688 239.069016 
L 392.922338 241.843364 
L 396.680179 244.698268 
L 400.440991 247.626755 
L 404.204589 250.621578 
L 407.970825 253.675243 
L 411.739592 256.780046 
L 415.510821 259.928103 
L 419.284481 263.111387 
L 423.060587 266.321756 
L 426.839191 269.550995 
L 430.62039 272.790844 
" clip-path="url(#pf5bf449c2c)" style="fill: none; stroke: #000000; stroke-width: 1.5"/>
    <path d="M 258.084254 211.11959 
L 261.421125 209.274701 
L 264.771161 207.43411 
L 268.134783 205.609206 
L 271.512366 203.811396 
L 274.904229 202.05207 
L 278.310642 200.342542 
L 281.731819 198.694009 
L 285.167919 197.117501 
L 288.619046 195.623831 
L 292.085248 194.223546 
L 295.566514 192.926879 
L 299.06278 191.743701 
L 302.573926 190.683474 
L 306.099777 189.755204 
L 309.640104 188.967398 
L 313.19463 188.328019 
L 316.763025 187.844449 
L 320.344915 187.523448 
L 323.93988 187.37112 
L 327.547462 187.392881 
L 331.167163 187.593429 
L 334.798451 187.976719 
L 338.440766 188.54594 
L 342.09352 189.303501 
L 345.756105 190.251013 
L 349.427895 191.38928 
L 353.108251 192.718297 
L 356.796528 194.237245 
L 360.492076 195.944496 
L 364.194249 197.837621 
L 367.902405 199.913402 
L 371.615915 202.167847 
L 375.334166 204.59621 
L 379.056565 207.193016 
L 382.782544 209.95209 
L 386.511564 212.866584 
L 390.243121 215.929013 
L 393.976745 219.131295 
L 397.712009 222.464786 
L 401.448529 225.920327 
L 405.185967 229.488283 
L 408.924037 233.158593 
L 412.662503 236.920816 
L 416.401182 240.76418 
L 420.139947 244.677628 
L 423.87873 248.649871 
L 427.617517 252.669438 
L 431.356355 256.724724 
L 435.095349 260.804038 
L 438.834661 264.895655 
" clip-path="url(#pf5bf449c2c)" style="fill: none; stroke: #000000; stroke-width: 1.5"/>
    <path d="M 267.012155 204.084131 
L 270.321229 201.571257 
L 273.644745 199.06171 
L 276.983182 196.56949 
L 280.336956 194.108645 
L 283.706424 191.693217 
L 287.091876 189.337187 
L 290.493538 187.054405 
L 293.911571 184.85854 
L 297.346065 182.763008 
L 300.797046 180.780917 
L 304.264467 178.925 
L 307.748218 177.207559 
L 311.248119 175.640397 
L 314.763925 174.234764 
L 318.295329 173.001296 
L 321.84196 171.949963 
L 325.403389 171.090013 
L 328.979132 170.429922 
L 332.56865 169.977349 
L 336.171359 169.739095 
L 339.786627 169.72106 
L 343.413785 169.928215 
L 347.052129 170.364567 
L 350.700923 171.033142 
L 354.35941 171.935961 
L 358.026813 173.074032 
L 361.702342 174.447339 
L 365.3852 176.054844 
L 369.07459 177.894488 
L 372.76972 179.963205 
L 376.469809 182.256938 
L 380.174093 184.770655 
L 383.881829 187.498383 
L 387.592304 190.433235 
L 391.30484 193.567447 
L 395.018795 196.892424 
L 398.733571 200.398776 
L 402.448621 204.076376 
L 406.163447 207.914408 
L 409.877609 211.901421 
L 413.590725 216.025389 
L 417.302479 220.27377 
L 421.012617 224.633567 
L 424.720953 229.091388 
L 428.427371 233.633512 
L 432.131824 238.245952 
L 435.834338 242.914516 
L 439.535009 247.62487 
L 443.234004 252.362601 
L 446.931564 257.113276 
" clip-path="url(#pf5bf449c2c)" style="fill: none; stroke: #000000; stroke-width: 1.5"/>
    <path d="M 275.819565 197.143622 
L 279.111359 194.189397 
L 282.418377 191.237577 
L 285.741108 188.303868 
L 289.079978 185.404054 
L 292.43534 182.553923 
L 295.807481 179.769212 
L 299.196611 177.06553 
L 302.60287 174.458289 
L 306.02632 171.962638 
L 309.46695 169.593389 
L 312.924674 167.364944 
L 316.39933 165.291225 
L 319.890682 163.385605 
L 323.398425 161.660838 
L 326.922181 160.128993 
L 330.461506 158.801386 
L 334.015892 157.688521 
L 337.58477 156.800034 
L 341.167514 156.144634 
L 344.763447 155.730054 
L 348.371843 155.563009 
L 351.991935 155.649155 
L 355.62292 155.993055 
L 359.263964 156.598149 
L 362.91421 157.466737 
L 366.572781 158.599961 
L 370.238791 159.997797 
L 373.911348 161.659058 
L 377.589563 163.58139 
L 381.272557 165.761295 
L 384.959464 168.194143 
L 388.649443 170.874199 
L 392.341679 173.794656 
L 396.035395 176.94767 
L 399.729853 180.324407 
L 403.424361 183.915085 
L 407.118279 187.709035 
L 410.811025 191.694751 
L 414.502076 195.859955 
L 418.190977 200.191662 
L 421.87734 204.676242 
L 425.560847 209.299496 
L 429.24126 214.04672 
L 432.918412 218.902782 
L 436.592217 223.852191 
L 440.262669 228.879171 
L 443.92984 233.967733 
L 447.593883 239.101745 
L 451.255032 244.265004 
L 454.913597 249.441304 
" clip-path="url(#pf5bf449c2c)" style="fill: none; stroke: #000000; stroke-width: 1.5"/>
    <path d="M 284.508907 190.296155 
L 287.7926 187.152092 
L 291.091765 184.009987 
L 294.406867 180.886253 
L 297.738303 177.797387 
L 301.086399 174.759905 
L 304.451407 171.790268 
L 307.833504 168.904812 
L 311.232793 166.119676 
L 314.649296 163.450728 
L 318.08296 160.913486 
L 321.533657 158.523046 
L 325.00118 156.294008 
L 328.485246 154.240396 
L 331.985503 152.375591 
L 335.501523 150.712259 
L 339.032814 149.262279 
L 342.578818 148.03668 
L 346.138914 147.045579 
L 349.712428 146.298125 
L 353.298632 145.802441 
L 356.896753 145.565582 
L 360.505975 145.59349 
L 364.12545 145.890957 
L 367.7543 146.461598 
L 371.391624 147.307829 
L 375.036507 148.430846 
L 378.688026 149.830622 
L 382.345257 151.505903 
L 386.007278 153.454214 
L 389.673185 155.671872 
L 393.34209 158.154007 
L 397.013132 160.894589 
L 400.685485 163.886459 
L 404.358359 167.121374 
L 408.031012 170.590048 
L 411.702753 174.282207 
L 415.372946 178.186642 
L 419.041018 182.291273 
L 422.706462 186.583213 
L 426.368839 191.048832 
L 430.027785 195.673836 
L 433.683014 200.443334 
L 437.334315 205.341912 
L 440.981562 210.353715 
L 444.624709 215.462518 
L 448.263793 220.651802 
L 451.898937 225.904835 
L 455.530345 231.204741 
L 459.158305 236.534579 
L 462.783187 241.877407 
" clip-path="url(#pf5bf449c2c)" style="fill: none; stroke: #000000; stroke-width: 1.5"/>
    <path d="M 293.082539 183.539871 
L 296.365371 180.466321 
L 299.663381 177.394942 
L 302.976979 174.341811 
L 306.306508 171.323087 
L 309.652242 168.354939 
L 313.014383 165.453482 
L 316.393061 162.634705 
L 319.788331 159.914399 
L 323.200176 157.308087 
L 326.628502 154.830947 
L 330.073143 152.497741 
L 333.53386 150.32274 
L 337.010342 148.319656 
L 340.502209 146.501565 
L 344.009012 144.880843 
L 347.530242 143.469094 
L 351.065325 142.277094 
L 354.613632 141.314722 
L 358.174482 140.590914 
L 361.747147 140.113601 
L 365.330855 139.889671 
L 368.924798 139.924925 
L 372.528137 140.22404 
L 376.14001 140.790546 
L 379.759534 141.626799 
L 383.385817 142.733966 
L 387.01796 144.112021 
L 390.655066 145.759739 
L 394.296249 147.674701 
L 397.940636 149.853313 
L 401.587376 152.29082 
L 405.235648 154.981332 
L 408.884667 157.91786 
L 412.533685 161.092354 
L 416.182005 164.495744 
L 419.82898 168.117995 
L 423.47402 171.948157 
L 427.116599 175.974428 
L 430.756256 180.184213 
L 434.392599 184.564196 
L 438.025311 189.1004 
L 441.654149 193.778268 
L 445.278949 198.582729 
L 448.899627 203.498273 
L 452.516181 208.50903 
L 456.128689 213.598836 
L 459.737312 218.751315 
L 463.342291 223.949949 
L 466.943951 229.178146 
L 470.542694 234.419318 
" clip-path="url(#pf5bf449c2c)" style="fill: none; stroke: #000000; stroke-width: 1.5"/>
    <path d="M 301.542756 176.872961 
L 304.82965 174.122654 
L 308.130903 171.375277 
L 311.446849 168.645567 
L 314.777762 165.948317 
L 318.123849 163.29832 
L 321.485256 160.710305 
L 324.862059 158.198877 
L 328.254271 155.778445 
L 331.661836 153.463162 
L 335.084631 151.266858 
L 338.522468 149.202974 
L 341.975095 147.284494 
L 345.442195 145.523883 
L 348.92339 143.933024 
L 352.418242 142.523153 
L 355.92626 141.304804 
L 359.446896 140.28775 
L 362.979557 139.48095 
L 366.523602 138.8925 
L 370.078352 138.529587 
L 373.643089 138.39845 
L 377.217068 138.504339 
L 380.799517 138.851491 
L 384.389645 139.4431 
L 387.986648 140.281298 
L 391.589712 141.367145 
L 395.198024 142.700617 
L 398.810774 144.280607 
L 402.427164 146.10493 
L 406.046411 148.170333 
L 409.667754 150.472515 
L 413.290464 153.006147 
L 416.913842 155.7649 
L 420.537232 158.741485 
L 424.160018 161.927684 
L 427.781639 165.314401 
L 431.401583 168.891707 
L 435.019399 172.648891 
L 438.634696 176.574519 
L 442.247149 180.656493 
L 445.8565 184.882107 
L 449.462563 189.238119 
L 453.06522 193.710806 
L 456.664432 198.28604 
L 460.260229 202.949347 
L 463.852721 207.685978 
L 467.442091 212.480975 
L 471.028595 217.319238 
L 474.612567 222.185588 
L 478.194411 227.064831 
" clip-path="url(#pf5bf449c2c)" style="fill: none; stroke: #000000; stroke-width: 1.5"/>
    <path d="M 309.891796 170.293662 
L 313.185208 168.095879 
L 316.491684 165.901973 
L 319.811474 163.724422 
L 323.144772 161.575734 
L 326.49172 159.468403 
L 329.852407 157.414847 
L 333.226863 155.427362 
L 336.615066 153.518068 
L 340.016937 151.698848 
L 343.432342 149.981303 
L 346.861091 148.376692 
L 350.302945 146.895879 
L 353.757609 145.549283 
L 357.22474 144.346824 
L 360.703948 143.297875 
L 364.194797 142.411214 
L 367.696808 141.694977 
L 371.209465 141.15662 
L 374.732216 140.802873 
L 378.264478 140.639709 
L 381.805638 140.672308 
L 385.355063 140.905031 
L 388.9121 141.341393 
L 392.476083 141.984047 
L 396.046335 142.834763 
L 399.622177 143.894421 
L 403.202931 145.163006 
L 406.787923 146.639602 
L 410.376491 148.322403 
L 413.96799 150.208713 
L 417.561795 152.29497 
L 421.157306 154.576752 
L 424.753953 157.048813 
L 428.351203 159.705097 
L 431.948559 162.53878 
L 435.545569 165.542297 
L 439.141826 168.707385 
L 442.736973 172.025125 
L 446.330706 175.485983 
L 449.922777 179.079861 
L 453.512994 182.796143 
L 457.101227 186.623749 
L 460.687407 190.551188 
L 464.271525 194.566609 
L 467.853639 198.657858 
L 471.433869 202.812533 
L 475.012398 207.018037 
L 478.589473 211.261635 
L 482.165406 215.530507 
L 485.740569 219.811803 
" clip-path="url(#pf5bf449c2c)" style="fill: none; stroke: #000000; stroke-width: 1.5"/>
    <path d="M 318.131834 163.80026 
L 321.431842 162.346659 
L 324.743221 160.897556 
L 328.066134 159.462411 
L 331.400705 158.050693 
L 334.747018 156.671837 
L 338.105114 155.335206 
L 341.474994 154.050055 
L 344.856617 152.825486 
L 348.2499 151.670414 
L 351.654723 150.593522 
L 355.070921 149.603225 
L 358.498295 148.707631 
L 361.936604 147.914504 
L 365.385574 147.231226 
L 368.844897 146.664763 
L 372.31423 146.22163 
L 375.793203 145.90786 
L 379.281417 145.728975 
L 382.778449 145.689955 
L 386.283854 145.795218 
L 389.797168 146.048592 
L 393.317913 146.453298 
L 396.845598 147.011933 
L 400.379722 147.726456 
L 403.919781 148.598174 
L 407.46527 149.627742 
L 411.015684 150.815151 
L 414.570526 152.15973 
L 418.129308 153.660153 
L 421.691555 155.314436 
L 425.256809 157.119954 
L 428.824634 159.073452 
L 432.394615 161.171057 
L 435.966366 163.408298 
L 439.53953 165.780133 
L 443.113783 168.280964 
L 446.688838 170.904672 
L 450.264444 173.64464 
L 453.840391 176.49379 
L 457.416512 179.444611 
L 460.992684 182.489196 
L 464.568829 185.619282 
L 468.144914 188.82628 
L 471.720958 192.101322 
L 475.297023 195.435294 
L 478.873224 198.818879 
L 482.449721 202.242597 
L 486.026726 205.696846 
L 489.604496 209.171939 
L 493.183337 212.658149 
" clip-path="url(#pf5bf449c2c)" style="fill: none; stroke: #000000; stroke-width: 1.5"/>
    <path d="M 326.264991 157.391083 
L 329.569581 156.824058 
L 332.883555 156.261315 
L 336.207003 155.708744 
L 339.539991 155.172222 
L 342.88256 154.657594 
L 346.234723 154.170649 
L 349.596472 153.717095 
L 352.967769 153.302534 
L 356.348556 152.932441 
L 359.738746 152.61214 
L 363.138231 152.34678 
L 366.546878 152.141312 
L 369.964534 152.000469 
L 373.391023 151.928744 
L 376.826149 151.930371 
L 380.269697 152.009302 
L 383.721437 152.169196 
L 387.181121 152.413394 
L 390.648487 152.744908 
L 394.123263 153.166408 
L 397.605164 153.680205 
L 401.093898 154.288245 
L 404.589167 154.992093 
L 408.090668 155.792932 
L 411.598098 156.691554 
L 415.11115 157.688356 
L 418.629524 158.783336 
L 422.152922 159.976096 
L 425.681053 161.265841 
L 429.213635 162.651382 
L 432.750399 164.131143 
L 436.291086 165.703166 
L 439.835454 167.36512 
L 443.383278 169.114313 
L 446.934351 170.9477 
L 450.488489 172.861902 
L 454.045527 174.853215 
L 457.605327 176.917632 
L 461.167775 179.050856 
L 464.732781 181.248321 
L 468.300287 183.505213 
L 471.870259 185.81649 
L 475.442695 188.176901 
L 479.017623 190.581013 
L 482.595099 193.023231 
L 486.17521 195.497824 
L 489.758075 197.998946 
L 493.343842 200.520663 
L 496.932689 203.056974 
L 500.524825 205.60184 
" clip-path="url(#pf5bf449c2c)" style="fill: none; stroke: #000000; stroke-width: 1.5"/>
    <path d="M 334.293335 151.064503 
L 337.598855 151.468781 
L 340.911607 151.875933 
L 344.231628 152.28795 
L 347.558944 152.706819 
L 350.893575 153.134509 
L 354.235531 153.572965 
L 357.584815 154.024101 
L 360.941419 154.489792 
L 364.305331 154.971865 
L 367.676529 155.472094 
L 371.054981 155.992189 
L 374.440651 156.533795 
L 377.833495 157.098479 
L 381.23346 157.687725 
L 384.640491 158.302932 
L 388.054523 158.945403 
L 391.475488 159.616341 
L 394.903313 160.316847 
L 398.337918 161.047909 
L 401.779224 161.810404 
L 405.227146 162.605092 
L 408.681597 163.432611 
L 412.142488 164.293476 
L 415.60973 165.188077 
L 419.083233 166.116676 
L 422.562909 167.079406 
L 426.048667 168.076271 
L 429.540423 169.107146 
L 433.038093 170.171775 
L 436.541595 171.269777 
L 440.050853 172.40064 
L 443.565795 173.56373 
L 447.086354 174.758291 
L 450.61247 175.983445 
L 454.144088 177.238202 
L 457.68116 178.521457 
L 461.223648 179.831999 
L 464.771519 181.168515 
L 468.32475 182.529594 
L 471.883328 183.913734 
L 475.447248 185.319349 
L 479.016514 186.744773 
L 482.591143 188.188267 
L 486.171158 189.648028 
L 489.756596 191.122195 
L 493.347502 192.608857 
L 496.943932 194.106061 
L 500.545953 195.611816 
L 504.153643 197.124108 
L 507.767088 198.640902 
" clip-path="url(#pf5bf449c2c)" style="fill: none; stroke: #000000; stroke-width: 1.5"/>
    <path d="M 338.268832 147.931689 
L 341.573091 148.833987 
L 344.883488 149.73796 
L 348.20004 150.643615 
L 351.522765 151.550955 
L 354.851679 152.459985 
L 358.186799 153.37071 
L 361.528144 154.283134 
L 364.875731 155.197263 
L 368.229576 156.113101 
L 371.589698 157.030654 
L 374.956115 157.949925 
L 378.328844 158.870919 
L 381.707902 159.793642 
L 385.093308 160.718099 
L 388.48508 161.644294 
L 391.883235 162.572232 
L 395.287792 163.501918 
L 398.698769 164.433357 
L 402.116183 165.366554 
L 405.540053 166.301514 
L 408.970398 167.238241 
L 412.407236 168.176742 
L 415.850585 169.117021 
L 419.300463 170.059083 
L 422.75689 171.002934 
L 426.219884 171.948577 
L 429.689464 172.896019 
L 433.165648 173.845264 
L 436.648456 174.796318 
L 440.137906 175.749186 
L 443.634017 176.703873 
L 447.136809 177.660384 
L 450.6463 178.618725 
L 454.162511 179.5789 
L 457.685459 180.540915 
L 461.215166 181.504776 
L 464.751649 182.470487 
L 468.294929 183.438055 
L 471.845025 184.407483 
L 475.401957 185.378778 
L 478.965744 186.351946 
L 482.536407 187.32699 
L 486.113966 188.303918 
L 489.69844 189.282734 
L 493.289849 190.263444 
L 496.888214 191.246054 
L 500.493555 192.230568 
L 504.105892 193.216993 
L 507.725245 194.205334 
L 511.351636 195.195596 
" clip-path="url(#pf5bf449c2c)" style="fill: none; stroke: #2196F3; stroke-width: 2.5"/>
    <path d="M 230.55236 232.815565 
L 232.89067 230.972905 
L 235.220844 229.136657 
L 237.542924 227.306787 
L 239.856951 225.483263 
L 242.162968 223.666051 
L 244.461017 221.855118 
L 246.751138 220.050433 
L 249.033372 218.251962 
L 251.307761 216.459674 
L 253.574344 214.673537 
L 255.833162 212.89352 
L 258.084254 211.11959 
L 260.327661 209.351717 
L 262.56342 207.58987 
L 264.791572 205.834018 
L 267.012155 204.084131 
L 269.225208 202.340178 
L 271.430769 200.602128 
L 273.628875 198.869953 
L 275.819565 197.143622 
L 278.002876 195.423106 
L 280.178846 193.708376 
L 282.34751 191.999402 
L 284.508907 190.296155 
L 286.663072 188.598607 
L 288.810042 186.90673 
L 290.949852 185.220494 
L 293.082539 183.539871 
L 295.208137 181.864834 
L 297.326683 180.195355 
L 299.438211 178.531407 
L 301.542756 176.872961 
L 303.640353 175.21999 
L 305.731036 173.572468 
L 307.814839 171.930368 
L 309.891796 170.293662 
L 311.96194 168.662325 
L 314.025306 167.03633 
L 316.081926 165.41565 
L 318.131834 163.80026 
L 320.175062 162.190134 
L 322.211642 160.585246 
L 324.241608 158.985571 
L 326.264991 157.391083 
L 328.281824 155.801757 
L 330.292138 154.217568 
L 332.295964 152.638492 
L 334.293335 151.064503 
L 336.284281 149.495577 
L 338.268832 147.931689 
" clip-path="url(#pf5bf449c2c)" style="fill: none; stroke: #2196F3; stroke-width: 2.5"/>
    <path d="M 244.531913 237.095694 
L 246.811939 234.18135 
L 249.085718 231.279377 
L 251.353429 228.393884 
L 253.61524 225.528943 
L 255.871302 222.688567 
L 258.121752 219.876694 
L 260.366712 217.097175 
L 262.606289 214.353755 
L 264.840573 211.650056 
L 267.069643 208.989566 
L 269.293558 206.375622 
L 271.512366 203.811396 
L 273.726098 201.299884 
L 275.934773 198.843888 
L 278.138396 196.446012 
L 280.336956 194.108645 
L 282.530434 191.833952 
L 284.718795 189.623868 
L 286.901995 187.480086 
L 289.079978 185.404054 
L 291.252678 183.396963 
L 293.420023 181.45975 
L 295.581927 179.593088 
L 297.738303 177.797387 
L 299.889053 176.072791 
L 302.034076 174.419176 
L 304.173264 172.836158 
L 306.306508 171.323087 
L 308.433695 169.879054 
L 310.55471 168.502896 
L 312.669437 167.193202 
L 314.777762 165.948317 
L 316.879568 164.76635 
L 318.974745 163.645187 
L 321.063182 162.582494 
L 323.144772 161.575734 
L 325.219413 160.622174 
L 327.287009 159.718897 
L 329.347468 158.862817 
L 331.400705 158.050693 
L 333.446643 157.27914 
L 335.48521 156.544644 
L 337.516344 155.843579 
L 339.539991 155.172222 
L 341.556106 154.526764 
L 343.564653 153.903334 
L 345.565605 153.298005 
L 347.558944 152.706819 
L 349.544664 152.125797 
L 351.522765 151.550955 
" clip-path="url(#pf5bf449c2c)" style="fill: none; stroke: #000000; stroke-width: 1.5"/>
    <path d="M 258.625115 241.410618 
L 260.858245 237.484696 
L 263.086787 233.57546 
L 265.311021 229.690964 
L 267.531198 225.839204 
L 269.747546 222.028084 
L 271.960262 218.265382 
L 274.169519 214.558716 
L 276.375457 210.915516 
L 278.578194 207.342989 
L 280.777814 203.848085 
L 282.974379 200.437471 
L 285.167919 197.117501 
L 287.358441 193.894183 
L 289.545924 190.773157 
L 291.730324 187.759668 
L 293.911571 184.85854 
L 296.089573 182.074157 
L 298.264215 179.410441 
L 300.435365 176.870835 
L 302.60287 174.458289 
L 304.766557 172.175242 
L 306.926243 170.023617 
L 309.081725 168.004808 
L 311.232793 166.119676 
L 313.379222 164.368548 
L 315.520781 162.75121 
L 317.657232 161.26692 
L 319.788331 159.914399 
L 321.913832 158.691851 
L 324.033487 157.596965 
L 326.147048 156.626928 
L 328.254271 155.778445 
L 330.354915 155.047746 
L 332.448746 154.430616 
L 334.535536 153.922408 
L 336.615066 153.518068 
L 338.687129 153.212159 
L 340.751528 152.998891 
L 342.80808 152.872141 
L 344.856617 152.825486 
L 346.896983 152.852235 
L 348.929041 152.945451 
L 350.952671 153.097992 
L 352.967769 153.302534 
L 354.97425 153.551607 
L 356.972048 153.837628 
L 358.961114 154.152929 
L 360.941419 154.489792 
L 362.912955 154.840479 
L 364.875731 155.197263 
" clip-path="url(#pf5bf449c2c)" style="fill: none; stroke: #000000; stroke-width: 1.5"/>
    <path d="M 272.833355 245.760763 
L 275.032325 240.946638 
L 277.228064 236.151942 
L 279.420907 231.388209 
L 281.61115 226.666917 
L 283.799054 221.999434 
L 285.984841 217.396974 
L 288.168696 212.870543 
L 290.350765 208.430897 
L 292.531156 204.088488 
L 294.70994 199.853421 
L 296.887149 195.735403 
L 299.06278 191.743701 
L 301.236794 187.887097 
L 303.409115 184.173847 
L 305.579636 180.61164 
L 307.748218 177.207559 
L 309.91469 173.968052 
L 312.078853 170.898896 
L 314.240483 168.005168 
L 316.39933 165.291225 
L 318.555122 162.760676 
L 320.707569 160.416372 
L 322.856363 158.260386 
L 325.00118 156.294008 
L 327.141685 154.517738 
L 329.277535 152.931285 
L 331.408378 151.533572 
L 333.53386 150.32274 
L 335.653625 149.296162 
L 337.767318 148.450457 
L 339.87459 147.78151 
L 341.975095 147.284494 
L 344.0685 146.953898 
L 346.154481 146.783554 
L 348.232727 146.766674 
L 350.302945 146.895879 
L 352.364858 147.163243 
L 354.418207 147.560329 
L 356.462758 148.078234 
L 358.498295 148.707631 
L 360.524628 149.438814 
L 362.541592 150.261744 
L 364.549046 151.166098 
L 366.546878 152.141312 
L 368.535 153.176631 
L 370.513353 154.261157 
L 372.481905 155.383894 
L 374.440651 156.533795 
L 376.389614 157.699808 
L 378.328844 158.870919 
" clip-path="url(#pf5bf449c2c)" style="fill: none; stroke: #000000; stroke-width: 1.5"/>
    <path d="M 287.158049 250.146563 
L 289.335557 244.623513 
L 291.510842 239.121385 
L 293.684245 233.654496 
L 295.856065 228.237114 
L 298.026555 222.8834 
L 300.195926 217.607341 
L 302.364339 212.422694 
L 304.531915 207.342921 
L 306.698725 202.381126 
L 308.864799 197.549995 
L 311.03012 192.861736 
L 313.19463 188.328019 
L 315.358228 183.959917 
L 317.520775 179.767853 
L 319.682091 175.761546 
L 321.84196 171.949963 
L 324.000133 168.341272 
L 326.156326 164.942799 
L 328.31023 161.760992 
L 330.461506 158.801386 
L 332.609793 156.068574 
L 334.754708 153.566187 
L 336.895853 151.296871 
L 339.032814 149.262279 
L 341.165167 147.463059 
L 343.29248 145.898857 
L 345.414317 144.568317 
L 347.530242 143.469094 
L 349.639822 142.597868 
L 351.742628 141.950364 
L 353.838243 141.521377 
L 355.92626 141.304804 
L 358.006287 141.293678 
L 360.07795 141.480208 
L 362.140897 141.855822 
L 364.194797 142.411214 
L 366.239344 143.136394 
L 368.27426 144.020741 
L 370.299295 145.053058 
L 372.31423 146.22163 
L 374.318876 147.514281 
L 376.313079 148.918434 
L 378.296715 150.421173 
L 380.269697 152.009302 
L 382.231971 153.669407 
L 384.183518 155.387915 
L 386.124353 157.151151 
L 388.054523 158.945403 
L 389.974113 160.756972 
L 391.883235 162.572232 
" clip-path="url(#pf5bf449c2c)" style="fill: none; stroke: #000000; stroke-width: 1.5"/>
    <path d="M 301.600635 254.568458 
L 303.768021 248.560671 
L 305.933806 242.574488 
L 308.098297 236.626115 
L 310.261758 230.731722 
L 312.4244 224.907374 
L 314.586385 219.168962 
L 316.747828 213.532128 
L 318.908793 208.012199 
L 321.069295 202.62411 
L 323.229302 197.382334 
L 325.388732 192.300811 
L 327.547462 187.392881 
L 329.705321 182.671214 
L 331.862098 178.147744 
L 334.01754 173.833609 
L 336.171359 169.739095 
L 338.323229 165.873574 
L 340.472795 162.245461 
L 342.619671 158.862166 
L 344.763447 155.730054 
L 346.90369 152.854411 
L 349.039947 150.239418 
L 351.171754 147.888126 
L 353.298632 145.802441 
L 355.420098 143.98312 
L 357.535663 142.429762 
L 359.644841 141.140818 
L 361.747147 140.113601 
L 363.842107 139.344303 
L 365.929257 138.828019 
L 368.008149 138.558781 
L 370.078352 138.529587 
L 372.139457 138.732452 
L 374.191079 139.158445 
L 376.232862 139.797749 
L 378.264478 140.639709 
L 380.285629 141.672896 
L 382.296054 142.885168 
L 384.295526 144.263733 
L 386.283854 145.795218 
L 388.260886 147.465738 
L 390.226507 149.260962 
L 392.180645 151.166187 
L 394.123263 153.166408 
L 396.054366 155.246385 
L 397.973999 157.390714 
L 399.882245 159.583897 
L 401.779224 161.810404 
L 403.665096 164.054741 
L 405.540053 166.301514 
" clip-path="url(#pf5bf449c2c)" style="fill: none; stroke: #000000; stroke-width: 1.5"/>
    <path d="M 316.162573 259.026895 
L 318.328671 252.789524 
L 320.493384 246.574016 
L 322.656958 240.397438 
L 324.819587 234.276831 
L 326.981417 228.229133 
L 329.142542 222.271108 
L 331.303007 216.419266 
L 333.462805 210.689792 
L 335.621881 205.098466 
L 337.780133 199.660585 
L 339.937411 194.390893 
L 342.09352 189.303501 
L 344.248223 184.411819 
L 346.401241 179.728484 
L 348.552258 175.265293 
L 350.700923 171.033142 
L 352.846851 167.041967 
L 354.98963 163.300689 
L 357.128821 159.817166 
L 359.263964 156.598149 
L 361.394581 153.649248 
L 363.520179 150.974898 
L 365.640254 148.57834 
L 367.7543 146.461598 
L 369.861804 144.625478 
L 371.962257 143.069558 
L 374.055157 141.792196 
L 376.14001 140.790546 
L 378.216337 140.060571 
L 380.283675 139.597071 
L 382.341584 139.39372 
L 384.389645 139.4431 
L 386.427469 139.736746 
L 388.454696 140.265199 
L 390.470998 141.01806 
L 392.476083 141.984047 
L 394.469694 143.151063 
L 396.451616 144.506258 
L 398.42167 146.036103 
L 400.379722 147.726456 
L 402.325678 149.562641 
L 404.259486 151.529518 
L 406.181138 153.611562 
L 408.090668 155.792932 
L 409.988154 158.057551 
L 411.873713 160.389176 
L 413.747506 162.771471 
L 415.60973 165.188077 
L 417.460624 167.622682 
L 419.300463 170.059083 
" clip-path="url(#pf5bf449c2c)" style="fill: none; stroke: #000000; stroke-width: 1.5"/>
    <path d="M 330.845349 263.52233 
L 333.015616 257.325466 
L 335.184308 251.150503 
L 337.351587 245.014281 
L 339.517568 238.933609 
L 341.682317 232.925196 
L 343.84585 227.005572 
L 346.008136 221.191021 
L 348.169096 215.497498 
L 350.328606 209.940561 
L 352.486496 204.53529 
L 354.642555 199.296216 
L 356.796528 194.237245 
L 358.948123 189.371591 
L 361.097013 184.711706 
L 363.242836 180.269212 
L 365.3852 176.054844 
L 367.523685 172.078386 
L 369.65785 168.348625 
L 371.78723 164.873299 
L 373.911348 161.659058 
L 376.029711 158.711421 
L 378.14182 156.034758 
L 380.24717 153.632254 
L 382.345257 151.505903 
L 384.435577 149.656493 
L 386.517638 148.083607 
L 388.590957 146.785625 
L 390.655066 145.759739 
L 392.709516 145.001969 
L 394.753881 144.507194 
L 396.787758 144.269177 
L 398.810774 144.280607 
L 400.822589 144.533144 
L 402.822894 145.017466 
L 404.811416 145.723325 
L 406.787923 146.639602 
L 408.752219 147.754375 
L 410.704152 149.054979 
L 412.64361 150.528077 
L 414.570526 152.15973 
L 416.484874 153.935469 
L 418.386674 155.840368 
L 420.275988 157.859117 
L 422.152922 159.976096 
L 424.017623 162.175449 
L 425.87028 164.441155 
L 427.711124 166.7571 
L 429.540423 169.107146 
L 431.358484 171.475196 
L 433.165648 173.845264 
" clip-path="url(#pf5bf449c2c)" style="fill: none; stroke: #000000; stroke-width: 1.5"/>
    <path d="M 345.650474 268.055224 
L 347.826479 262.166813 
L 350.00033 256.300068 
L 352.172103 250.470521 
L 354.341834 244.693661 
L 356.50951 238.98487 
L 358.675077 233.359358 
L 360.838437 227.832094 
L 362.999453 222.417736 
L 365.157944 217.130562 
L 367.313694 211.984407 
L 369.466447 206.992588 
L 371.615915 202.167847 
L 373.761777 197.522278 
L 375.903683 193.067275 
L 378.041255 188.813464 
L 380.174093 184.770655 
L 382.301775 180.947787 
L 384.423863 177.35288 
L 386.539907 173.992996 
L 388.649443 170.874199 
L 390.752003 168.001522 
L 392.847118 165.378942 
L 394.934316 163.009361 
L 397.013132 160.894589 
L 399.083111 159.035336 
L 401.143806 157.431214 
L 403.194789 156.080736 
L 405.235648 154.981332 
L 407.265995 154.129361 
L 409.285466 153.520138 
L 411.293724 153.147961 
L 413.290464 153.006147 
L 415.275412 153.087065 
L 417.24833 153.382191 
L 419.209016 153.882145 
L 421.157306 154.576752 
L 423.093076 155.455094 
L 425.016242 156.505567 
L 426.926761 157.715947 
L 428.824634 159.073452 
L 430.709899 160.564805 
L 432.58264 162.176301 
L 434.442981 163.893874 
L 436.291086 165.703166 
L 438.127158 167.589588 
L 439.951441 169.538392 
L 441.764215 171.534732 
L 443.565795 173.56373 
L 445.356532 175.610534 
L 447.136809 177.660384 
" clip-path="url(#pf5bf449c2c)" style="fill: none; stroke: #000000; stroke-width: 1.5"/>
    <path d="M 360.579483 272.626047 
L 362.758802 267.294854 
L 364.935042 261.984523 
L 367.108208 256.708276 
L 369.27827 251.479282 
L 371.445158 246.310602 
L 373.608768 241.21513 
L 375.768963 236.205537 
L 377.925568 231.294217 
L 380.07838 226.493225 
L 382.227164 221.814227 
L 384.371655 217.268441 
L 386.511564 212.866584 
L 388.646578 208.618821 
L 390.77636 204.534715 
L 392.900556 200.623176 
L 395.018795 196.892424 
L 397.130693 193.349938 
L 399.235855 190.002427 
L 401.33388 186.855789 
L 403.424361 183.915085 
L 405.506891 181.184514 
L 407.581065 178.667388 
L 409.646483 176.366119 
L 411.702753 174.282207 
L 413.749495 172.416234 
L 415.786343 170.767862 
L 417.812947 169.335836 
L 419.82898 168.117995 
L 421.834133 167.111284 
L 423.828126 166.311774 
L 425.810703 165.714682 
L 427.781639 165.314401 
L 429.740739 165.104534 
L 431.68784 165.077923 
L 433.622815 165.226694 
L 435.545569 165.542297 
L 437.456046 166.01555 
L 439.354224 166.63669 
L 441.240118 167.39542 
L 443.113783 168.280964 
L 444.975308 169.282117 
L 446.824819 170.387299 
L 448.66248 171.584614 
L 450.488489 172.861902 
L 452.303079 174.206795 
L 454.106517 175.606772 
L 455.899101 177.049214 
L 457.68116 178.521457 
L 459.453053 180.010843 
L 461.215166 181.504776 
" clip-path="url(#pf5bf449c2c)" style="fill: none; stroke: #000000; stroke-width: 1.5"/>
    <path d="M 375.633938 277.235279 
L 377.810465 272.675005 
L 379.982712 268.133767 
L 382.150644 263.621635 
L 384.314194 259.148616 
L 386.47327 254.724616 
L 388.627752 250.359396 
L 390.777498 246.06253 
L 392.922338 241.843364 
L 395.062083 237.710975 
L 397.19652 233.674127 
L 399.325418 229.741235 
L 401.448529 225.920327 
L 403.565587 222.219003 
L 405.676314 218.644402 
L 407.780421 215.203169 
L 409.877609 211.901421 
L 411.96757 208.744721 
L 414.049994 205.738049 
L 416.124568 202.88578 
L 418.190977 200.191662 
L 420.248912 197.658799 
L 422.298065 195.289636 
L 424.338137 193.085948 
L 426.368839 191.048832 
L 428.389892 189.178706 
L 430.401032 187.475301 
L 432.402012 185.937671 
L 434.392599 184.564196 
L 436.372584 183.352591 
L 438.341778 182.299921 
L 440.300013 181.402617 
L 442.247149 180.656493 
L 444.183069 180.056769 
L 446.107683 179.598099 
L 448.02093 179.274596 
L 449.922777 179.079861 
L 451.813218 179.007017 
L 453.69228 179.048742 
L 455.560017 179.197308 
L 457.416512 179.444611 
L 459.26188 179.782216 
L 461.096262 180.201394 
L 462.919829 180.693161 
L 464.732781 181.248321 
L 466.535343 181.857502 
L 468.327766 182.511203 
L 470.110327 183.199829 
L 471.883328 183.913734 
L 473.64709 184.643261 
L 475.401957 185.378778 
" clip-path="url(#pf5bf449c2c)" style="fill: none; stroke: #000000; stroke-width: 1.5"/>
    <path d="M 390.815426 281.883404 
L 392.98007 278.258992 
L 395.13906 274.650317 
L 397.292355 271.063659 
L 399.439897 267.505243 
L 401.581612 263.981218 
L 403.71741 260.497626 
L 405.847188 257.060381 
L 407.970825 253.675243 
L 410.088192 250.347791 
L 412.199144 247.083404 
L 414.303529 243.887232 
L 416.401182 240.76418 
L 418.491931 237.718881 
L 420.5756 234.75568 
L 422.652003 231.878613 
L 424.720953 229.091388 
L 426.78226 226.39737 
L 428.835733 223.799569 
L 430.881179 221.300622 
L 432.918412 218.902782 
L 434.947244 216.607913 
L 436.967494 214.417477 
L 438.978989 212.332529 
L 440.981562 210.353715 
L 442.975053 208.481269 
L 444.959317 206.715009 
L 446.934216 205.054343 
L 448.899627 203.498273 
L 450.855442 202.045397 
L 452.801564 200.693917 
L 454.737915 199.441651 
L 456.664432 198.28604 
L 458.58107 197.224164 
L 460.487801 196.252754 
L 462.384616 195.368208 
L 464.271525 194.566609 
L 466.148556 193.843741 
L 468.015758 193.19511 
L 469.873196 192.615966 
L 471.720958 192.101322 
L 473.559148 191.645978 
L 475.387891 191.244541 
L 477.207329 190.891453 
L 479.017623 190.581013 
L 480.81895 190.307398 
L 482.611506 190.064693 
L 484.3955 189.846913 
L 486.171158 189.648028 
L 487.93872 189.461984 
L 489.69844 189.282734 
" clip-path="url(#pf5bf449c2c)" style="fill: none; stroke: #000000; stroke-width: 1.5"/>
    <path d="M 406.125563 286.570918 
L 408.267278 283.987921 
L 410.401905 281.415605 
L 412.529446 278.856074 
L 414.6499 276.31141 
L 416.763256 273.783662 
L 418.869502 271.27484 
L 420.96862 268.786903 
L 423.060587 266.321756 
L 425.145376 263.881237 
L 427.222957 261.467114 
L 429.293295 259.081076 
L 431.356355 256.724724 
L 433.412098 254.399569 
L 435.460483 252.107022 
L 437.501467 249.84839 
L 439.535009 247.62487 
L 441.561064 245.437544 
L 443.57959 243.287375 
L 445.590543 241.175204 
L 447.593883 239.101745 
L 449.58957 237.067582 
L 451.577565 235.07317 
L 453.557834 233.118828 
L 455.530345 231.204741 
L 457.495069 229.330962 
L 459.451981 227.497405 
L 461.40106 225.703851 
L 463.342291 223.949949 
L 465.275663 222.235213 
L 467.20117 220.559031 
L 469.118812 218.92066 
L 471.028595 217.319238 
L 472.930532 215.753779 
L 474.824639 214.223184 
L 476.710943 212.726241 
L 478.589473 211.261635 
L 480.460269 209.827946 
L 482.323375 208.423665 
L 484.178841 207.047192 
L 486.026726 205.696846 
L 487.867094 204.370871 
L 489.700017 203.067446 
L 491.525572 201.784688 
L 493.343842 200.520663 
L 495.154917 199.273391 
L 496.958892 198.040859 
L 498.755869 196.821022 
L 500.545953 195.611816 
L 502.329256 194.411166 
L 504.105892 193.216993 
" clip-path="url(#pf5bf449c2c)" style="fill: none; stroke: #000000; stroke-width: 1.5"/>
    <path d="M 413.829386 288.929602 
L 415.955225 286.886342 
L 418.073275 284.850567 
L 420.183579 282.822237 
L 422.28618 280.801312 
L 424.38112 278.787749 
L 426.468441 276.781511 
L 428.548183 274.782555 
L 430.62039 272.790844 
L 432.6851 270.806337 
L 434.742355 268.828996 
L 436.792195 266.858781 
L 438.834661 264.895655 
L 440.869791 262.93958 
L 442.897625 260.990516 
L 444.918204 259.048427 
L 446.931564 257.113276 
L 448.937745 255.185024 
L 450.936786 253.263636 
L 452.928724 251.349075 
L 454.913597 249.441304 
L 456.891443 247.540287 
L 458.862299 245.645989 
L 460.826201 243.758374 
L 462.783187 241.877407 
L 464.733294 240.003053 
L 466.676556 238.135276 
L 468.613011 236.274042 
L 470.542694 234.419318 
L 472.46564 232.571068 
L 474.381885 230.729259 
L 476.291464 228.893858 
L 478.194411 227.064831 
L 480.090761 225.242145 
L 481.980548 223.425766 
L 483.863806 221.615663 
L 485.740569 219.811803 
L 487.61087 218.014153 
L 489.474743 216.222682 
L 491.332221 214.437358 
L 493.183337 212.658149 
L 495.028123 210.885023 
L 496.866611 209.117951 
L 498.698835 207.3569 
L 500.524825 205.60184 
L 502.344614 203.85274 
L 504.158234 202.109571 
L 505.965714 200.372302 
L 507.767088 198.640902 
L 509.562385 196.915344 
L 511.351636 195.195596 
" clip-path="url(#pf5bf449c2c)" style="fill: none; stroke: #2196F3; stroke-width: 2.5"/>
   </g>
  </g>
 </g>
 <defs>
  <clipPath id="pf5bf449c2c">
   <rect x="202.68" y="51.84" width="332.64" height="265.64"/>
  </clipPath>
 </defs>
 <!-- Add to defs section -->
<defs>
  <marker id="velocity" 
          markerWidth="10" 
          markerHeight="7" 
          refX="9" 
          refY="3.5" 
          orient="auto">
    <polygon points="0 0, 10 3.5, 0 7" fill="#F44336"/>
  </marker>
</defs>

<!-- Add velocity vectors -->
<line x1="330" y1="197" x2="330" y2="135" 
      stroke="#F44336" 
      stroke-width="1.5" 
      marker-end="url(#velocity)"/>
<line x1="300" y1="220" x2="300" y2="170" 
      stroke="#F44336" 
      stroke-width="1.5" 
      marker-end="url(#velocity)"/>
</svg>
