<svg viewBox="0 0 800 450" xmlns="http://www.w3.org/2000/svg">
    <!-- Background -->
    <rect width="800" height="500" fill="#ffffff"/>
    
    <!-- Grid lines -->
    <path d="M 50 250 L 750 250" stroke="#cccccc" stroke-width="1"/>
    <!-- <path d="M 50 150 L 750 150" stroke="#cccccc" stroke-width="0.5" stroke-dasharray="5,5"/> -->
    <path d="M 50 350 L 750 350" stroke="#cccccc" stroke-width="0.5" stroke-dasharray="5,5"/>
    
    <!-- Y-axis -->
    <path d="M 50 50 L 50 410" stroke="#cccccc" stroke-width="1"/>
    
    <!-- X-axis labels -->
    <!-- <text x="50" y="270" fill="#666666" font-size="12">0</text> -->
    <text x="400" y="270" fill="#666666" font-size="12">π</text>
    <text x="750" y="270" fill="#666666" font-size="12">2π</text>
    
    <!-- Y-axis labels -->
    <text x="30" y="155" fill="#666666" font-size="12">1</text>
    <text x="30" y="255" fill="#666666" font-size="12">0</text>
    <text x="30" y="355" fill="#666666" font-size="12">-1</text>
    
    <!-- Y-axis ticks -->
    <path d="M 45 150 L 55 150" stroke="#666666" stroke-width="1"/>
    <path d="M 45 250 L 55 250" stroke="#666666" stroke-width="1"/>
    <path d="M 45 350 L 55 350" stroke="#666666" stroke-width="1"/>
    
    <!-- 1 (constant function) -->
    <path d="M 50 150 L 750 150" stroke="#000000" stroke-width="2"/>
    
    <!-- cos(x) -->
    <path d="M 50 150
             C 165 250, 285 250, 400 150
             C 515 50, 635 50, 750 150"
          fill="none" stroke="#2196F3" stroke-width="2"/>
    
    <!-- sin(x) -->
    <path d="M 50 250 
             C 165 150, 285 150, 400 250
             C 515 350, 635 350, 750 250"
          fill="none" stroke="#FF4081" stroke-width="2"/>
    
    <!-- cos(2x) -->
    <path d="M 50 150
             C 110 250, 165 250, 225 150
             C 285 50, 340 50, 400 150
             C 460 250, 515 250, 575 150
             C 635 50, 690 50, 750 150"
          fill="none" stroke="#4CAF50" stroke-width="2"/>
    
    <!-- sin(2x) -->
    <path d="M 50 250
             C 110 150, 165 150, 225 250
             C 285 350, 340 350, 400 250
             C 460 150, 515 150, 575 250
             C 635 350, 690 350, 750 250"
          fill="none" stroke="#FFA000" stroke-width="2"/>
    
    <!-- Legend (horizontal in lower right) -->
    <rect x="350" y="430" width="400" height="40" fill="#ffffff" fill-opacity="0.9"/>
    <rect x="360" y="415" width="15" height="2" fill="#000000"/>
    <text x="380" y="418" fill="#666666" font-size="12">1</text>
    
    <rect x="420" y="415" width="15" height="2" fill="#2196F3"/>
    <text x="440" y="418" fill="#666666" font-size="12">cos(x)</text>
    
    <rect x="500" y="415" width="15" height="2" fill="#FF4081"/>
    <text x="520" y="418" fill="#666666" font-size="12">sin(x)</text>
    
    <rect x="580" y="415" width="15" height="2" fill="#4CAF50"/>
    <text x="600" y="418" fill="#666666" font-size="12">cos(2x)</text>
    
    <rect x="660" y="415" width="15" height="2" fill="#FFA000"/>
    <text x="680" y="418" fill="#666666" font-size="12">sin(2x)</text>
</svg>
