<?xml version="1.0" encoding="utf-8" standalone="no"?>
<!DOCTYPE svg PUBLIC "-//W3C//DTD SVG 1.1//EN"
  "http://www.w3.org/Graphics/SVG/1.1/DTD/svg11.dtd">
<svg xmlns:xlink="http://www.w3.org/1999/xlink" width="797.33125pt" height="392.514375pt" viewBox="0 0 797.33125 392.514375" xmlns="http://www.w3.org/2000/svg" version="1.1">
 <metadata>
  <rdf:RDF xmlns:dc="http://purl.org/dc/elements/1.1/" xmlns:cc="http://creativecommons.org/ns#" xmlns:rdf="http://www.w3.org/1999/02/22-rdf-syntax-ns#">
   <cc:Work>
    <dc:type rdf:resource="http://purl.org/dc/dcmitype/StillImage"/>
    <dc:date>2025-01-19T13:31:59.966465</dc:date>
    <dc:format>image/svg+xml</dc:format>
    <dc:creator>
     <cc:Agent>
      <dc:title>Matplotlib v3.9.4, https://matplotlib.org/</dc:title>
     </cc:Agent>
    </dc:creator>
   </cc:Work>
  </rdf:RDF>
 </metadata>
 <defs>
  <style type="text/css">*{stroke-linejoin: round; stroke-linecap: butt}</style>
 </defs>
 <g id="figure_1">
  <g id="patch_1">
   <path d="M 0 392.514375 
L 797.33125 392.514375 
L 797.33125 0 
L 0 0 
z
" style="fill: #ffffff"/>
  </g>
  <g id="axes_1">
   <g id="patch_2">
    <path d="M 42.620312 354.958125 
L 712.220312 354.958125 
L 712.220312 22.318125 
L 42.620312 22.318125 
z
" style="fill: #ffffff"/>
   </g>
   <g id="matplotlib.axis_1">
    <g id="xtick_1">
     <g id="line2d_1">
      <defs>
       <path id="mc027bf6147" d="M 0 0 
L 0 3.5 
" style="stroke: #000000; stroke-width: 0.8"/>
      </defs>
      <g>
       <use xlink:href="#mc027bf6147" x="73.056676" y="354.958125" style="stroke: #000000; stroke-width: 0.8"/>
      </g>
     </g>
     <g id="text_1">
      <!-- 0 -->
      <g transform="translate(69.875426 369.556562) scale(0.1 -0.1)">
       <defs>
        <path id="DejaVuSans-30" d="M 2034 4250 
Q 1547 4250 1301 3770 
Q 1056 3291 1056 2328 
Q 1056 1369 1301 889 
Q 1547 409 2034 409 
Q 2525 409 2770 889 
Q 3016 1369 3016 2328 
Q 3016 3291 2770 3770 
Q 2525 4250 2034 4250 
z
M 2034 4750 
Q 2819 4750 3233 4129 
Q 3647 3509 3647 2328 
Q 3647 1150 3233 529 
Q 2819 -91 2034 -91 
Q 1250 -91 836 529 
Q 422 1150 422 2328 
Q 422 3509 836 4129 
Q 1250 4750 2034 4750 
z
" transform="scale(0.015625)"/>
       </defs>
       <use xlink:href="#DejaVuSans-30"/>
      </g>
     </g>
    </g>
    <g id="xtick_2">
     <g id="line2d_2">
      <g>
       <use xlink:href="#mc027bf6147" x="377.420313" y="354.958125" style="stroke: #000000; stroke-width: 0.8"/>
      </g>
     </g>
     <g id="text_2">
      <!-- π -->
      <g transform="translate(374.410156 369.556562) scale(0.1 -0.1)">
       <defs>
        <path id="DejaVuSans-3c0" d="M 231 3500 
L 3584 3500 
L 3584 2925 
L 3144 2925 
L 3144 775 
Q 3144 550 3220 451 
Q 3297 353 3469 353 
Q 3516 353 3584 361 
Q 3653 369 3675 372 
L 3675 -44 
Q 3566 -84 3450 -103 
Q 3334 -122 3219 -122 
Q 2844 -122 2700 83 
Q 2556 288 2556 838 
L 2556 2925 
L 1266 2925 
L 1266 0 
L 678 0 
L 678 2925 
L 231 2925 
L 231 3500 
z
" transform="scale(0.015625)"/>
       </defs>
       <use xlink:href="#DejaVuSans-3c0"/>
      </g>
     </g>
    </g>
    <g id="xtick_3">
     <g id="line2d_3">
      <g>
       <use xlink:href="#mc027bf6147" x="681.783949" y="354.958125" style="stroke: #000000; stroke-width: 0.8"/>
      </g>
     </g>
     <g id="text_3">
      <!-- 2π -->
      <g transform="translate(675.592543 369.556562) scale(0.1 -0.1)">
       <defs>
        <path id="DejaVuSans-32" d="M 1228 531 
L 3431 531 
L 3431 0 
L 469 0 
L 469 531 
Q 828 903 1448 1529 
Q 2069 2156 2228 2338 
Q 2531 2678 2651 2914 
Q 2772 3150 2772 3378 
Q 2772 3750 2511 3984 
Q 2250 4219 1831 4219 
Q 1534 4219 1204 4116 
Q 875 4013 500 3803 
L 500 4441 
Q 881 4594 1212 4672 
Q 1544 4750 1819 4750 
Q 2544 4750 2975 4387 
Q 3406 4025 3406 3419 
Q 3406 3131 3298 2873 
Q 3191 2616 2906 2266 
Q 2828 2175 2409 1742 
Q 1991 1309 1228 531 
z
" transform="scale(0.015625)"/>
       </defs>
       <use xlink:href="#DejaVuSans-32"/>
       <use xlink:href="#DejaVuSans-3c0" x="63.623047"/>
      </g>
     </g>
    </g>
    <g id="text_4">
     <!-- x -->
     <g transform="translate(374.460938 383.234687) scale(0.1 -0.1)">
      <defs>
       <path id="DejaVuSans-78" d="M 3513 3500 
L 2247 1797 
L 3578 0 
L 2900 0 
L 1881 1375 
L 863 0 
L 184 0 
L 1544 1831 
L 300 3500 
L 978 3500 
L 1906 2253 
L 2834 3500 
L 3513 3500 
z
" transform="scale(0.015625)"/>
      </defs>
      <use xlink:href="#DejaVuSans-78"/>
     </g>
    </g>
   </g>
   <g id="matplotlib.axis_2">
    <g id="ytick_1">
     <g id="line2d_4">
      <defs>
       <path id="m99540f595e" d="M 0 0 
L -3.5 0 
" style="stroke: #000000; stroke-width: 0.8"/>
      </defs>
      <!-- <g>
       <use xlink:href="#m99540f595e" x="42.620312" y="339.838312" style="stroke: #000000; stroke-width: 0.8"/>
      </g> -->
     </g>
     <g id="text_5">
      <!-- −1 -->
      <g transform="translate(20.878125 343.637531) scale(0.1 -0.1)">
       <defs>
        <path id="DejaVuSans-2212" d="M 678 2272 
L 4684 2272 
L 4684 1741 
L 678 1741 
L 678 2272 
z
" transform="scale(0.015625)"/>
        <path id="DejaVuSans-31" d="M 794 531 
L 1825 531 
L 1825 4091 
L 703 3866 
L 703 4441 
L 1819 4666 
L 2450 4666 
L 2450 531 
L 3481 531 
L 3481 0 
L 794 0 
L 794 531 
z
" transform="scale(0.015625)"/>
       </defs>
       <use xlink:href="#DejaVuSans-2212"/>
       <use xlink:href="#DejaVuSans-31" x="83.789062"/>
      </g>
     </g>
    </g>
    <g id="ytick_2">
     <g id="line2d_5">
      <!-- <g>
       <use xlink:href="#m99540f595e" x="42.620312" y="188.638218" style="stroke: #000000; stroke-width: 0.8"/>
      </g> -->
     </g>
     <g id="text_6">
      <!-- 0 -->
      <g transform="translate(29.257812 192.437437) scale(0.1 -0.1)">
       <use xlink:href="#DejaVuSans-30"/>
      </g>
     </g>
    </g>
    <g id="ytick_3">
     <g id="line2d_6">
      <!-- <g>
       <use xlink:href="#m99540f595e" x="42.620312" y="37.438125" style="stroke: #000000; stroke-width: 0.8"/>
      </g> -->
     </g>
     <g id="text_7">
      <!-- 1 -->
      <g transform="translate(29.257812 41.237344) scale(0.1 -0.1)">
       <use xlink:href="#DejaVuSans-31"/>
      </g>
     </g>
    </g>
   </g>
   <g id="line2d_7">
    <path d="M 73.056676 37.438125 
L 681.783949 37.438125 
L 681.783949 37.438125 
" clip-path="url(#p836653b694)" style="fill: none; stroke: #000000; stroke-width: 2; stroke-linecap: square"/>
   </g>
   <g id="line2d_8">
    <path d="M 73.056676 37.438125 
L 76.712696 37.545772 
L 80.368715 37.86856 
L 84.024735 38.406028 
L 87.680755 39.157413 
L 91.336774 40.121643 
L 94.992794 41.297346 
L 98.648814 42.682848 
L 102.304833 44.276176 
L 106.57019 46.394684 
L 110.835546 48.788861 
L 115.100902 51.454066 
L 119.366258 54.385135 
L 123.631615 57.576387 
L 127.896971 61.021638 
L 132.771664 65.261498 
L 137.646357 69.813642 
L 142.52105 74.666549 
L 148.005079 80.470252 
L 153.489109 86.620448 
L 158.973138 93.097439 
L 165.066504 100.652103 
L 171.15987 108.554704 
L 177.862573 117.612095 
L 185.174612 127.878916 
L 193.095988 139.389805 
L 202.236037 153.075466 
L 213.813433 170.848846 
L 252.201639 230.177474 
L 261.341688 243.688073 
L 269.263064 255.005436 
L 276.575104 265.060328 
L 283.277806 273.89643 
L 289.371172 281.576343 
L 295.464539 288.888737 
L 300.948568 295.131732 
L 306.432598 301.033596 
L 311.30729 305.978007 
L 316.181983 310.625414 
L 321.056676 314.964054 
L 325.931369 318.982944 
L 330.196725 322.229162 
L 334.462082 325.21648 
L 338.727438 327.939109 
L 342.992794 330.391772 
L 347.25815 332.569716 
L 351.523507 334.46872 
L 355.179526 335.87162 
L 358.835546 337.064875 
L 362.491566 338.046784 
L 366.147585 338.815951 
L 369.803605 339.371279 
L 373.459625 339.711979 
L 377.115644 339.837564 
L 380.771664 339.747857 
L 384.427684 339.442984 
L 388.083703 338.923381 
L 391.739723 338.189786 
L 395.395742 337.243245 
L 399.051762 336.085105 
L 402.707782 334.717015 
L 406.363801 333.140923 
L 410.629158 331.042269 
L 414.894514 328.667635 
L 419.15987 326.021623 
L 423.425227 323.109362 
L 427.690583 319.936496 
L 431.955939 316.509172 
L 436.830632 312.289195 
L 441.705325 307.756238 
L 446.580018 302.921777 
L 451.454711 297.798047 
L 456.93874 291.704261 
L 462.42277 285.280322 
L 468.516136 277.780461 
L 474.609502 269.928091 
L 481.312204 260.920436 
L 488.624244 250.701011 
L 496.54562 239.233086 
L 505.685669 225.585804 
L 516.653728 208.786205 
L 537.371172 176.526352 
L 551.385914 154.926813 
L 561.1353 140.289883 
L 569.666013 127.878916 
L 576.978052 117.612095 
L 583.680755 108.554704 
L 590.383457 99.880475 
L 596.476824 92.362272 
L 601.960853 85.920586 
L 607.444883 79.807935 
L 612.928912 74.043901 
L 617.803605 69.227933 
L 622.678298 64.714209 
L 627.552991 60.514156 
L 632.427684 56.638403 
L 636.69304 53.52088 
L 640.958396 50.665214 
L 645.223752 48.076941 
L 649.489109 45.761077 
L 653.754465 43.722108 
L 658.019821 41.963988 
L 661.675841 40.683158 
L 665.33186 39.613001 
L 668.98788 38.755041 
L 672.6439 38.110499 
L 676.299919 37.680295 
L 679.955939 37.465039 
L 681.783949 37.438125 
L 681.783949 37.438125 
" clip-path="url(#p836653b694)" style="fill: none; stroke: #2196F3; stroke-width: 2; stroke-linecap: square"/>
   </g>
   <g id="line2d_9">
    <path d="M 73.056676 188.638218 
L 92.555448 158.412233 
L 102.91417 142.774853 
L 111.444883 130.282609 
L 119.366258 119.08552 
L 126.068961 109.971121 
L 132.771664 101.23311 
L 138.86503 93.651296 
L 144.958396 86.445103 
L 150.442426 80.30427 
L 155.926455 74.510464 
L 160.801148 69.666773 
L 165.675841 65.124217 
L 170.550534 60.894293 
L 175.425227 56.987707 
L 179.690583 53.842477 
L 183.955939 50.958482 
L 188.221295 48.341311 
L 192.486652 45.996035 
L 196.752008 43.927201 
L 201.017364 42.138817 
L 204.673384 40.831775 
L 208.329403 39.735194 
L 211.985423 38.850636 
L 215.641443 38.179361 
L 219.297462 37.722325 
L 222.953482 37.480178 
L 226.609502 37.453264 
L 230.265521 37.641624 
L 233.921541 38.044987 
L 237.577561 38.66278 
L 241.23358 39.494123 
L 244.8896 40.537833 
L 248.54562 41.792423 
L 252.201639 43.256106 
L 256.466996 45.225212 
L 260.732352 47.472253 
L 264.997708 49.992873 
L 269.263064 52.782189 
L 273.528421 55.834795 
L 277.793777 59.144774 
L 282.66847 63.234507 
L 287.543163 67.641656 
L 292.417855 72.355064 
L 297.292548 77.362802 
L 302.776578 83.332513 
L 308.260607 89.639549 
L 314.353973 97.018389 
L 320.44734 104.759535 
L 327.150042 113.656683 
L 334.462082 123.770301 
L 342.383457 135.141642 
L 350.91417 147.785205 
L 361.272892 163.554049 
L 376.506308 187.211786 
L 396.614416 218.398168 
L 406.973138 234.048275 
L 415.503851 246.554896 
L 423.425227 257.768383 
L 430.127929 266.898867 
L 436.830632 275.654908 
L 442.923998 283.254728 
L 449.017364 290.480391 
L 454.501394 296.639937 
L 459.985423 302.45352 
L 464.860116 307.315632 
L 469.734809 311.877354 
L 474.609502 316.127139 
L 479.484195 320.054232 
L 483.749551 323.217894 
L 488.014907 326.120741 
L 492.280263 328.757145 
L 496.54562 331.121999 
L 500.810976 333.210718 
L 505.076332 335.019255 
L 508.732352 336.343757 
L 512.388371 337.45794 
L 516.044391 338.360218 
L 519.700411 339.049307 
L 523.35643 339.524226 
L 527.01245 339.784298 
L 530.66847 339.829153 
L 534.324489 339.658728 
L 537.980509 339.273264 
L 541.636529 338.67331 
L 545.292548 337.859722 
L 548.948568 336.833657 
L 552.604588 335.596576 
L 556.260607 334.150241 
L 560.525964 332.201141 
L 564.79132 329.973815 
L 569.056676 327.47258 
L 573.322032 324.702283 
L 577.587389 321.668294 
L 581.852745 318.376491 
L 586.727438 314.306949 
L 591.602131 309.91932 
L 596.476824 305.224711 
L 601.351516 300.235005 
L 606.835546 294.284606 
L 612.319575 287.995789 
L 617.803605 281.3887 
L 623.896971 273.699983 
L 630.599674 264.855094 
L 637.302376 255.645543 
L 644.614416 245.234681 
L 653.145128 232.685673 
L 662.894514 217.931838 
L 676.299919 197.192371 
L 681.783949 188.638218 
L 681.783949 188.638218 
" clip-path="url(#p836653b694)" style="fill: none; stroke: #FF4081; stroke-width: 2; stroke-linecap: square"/>
   </g>
   <g id="line2d_10">
    <path d="M 73.056676 37.438125 
L 74.884686 37.545772 
L 76.712696 37.86856 
L 78.540706 38.406028 
L 80.368715 39.157413 
L 82.196725 40.121643 
L 84.024735 41.297346 
L 85.852745 42.682848 
L 88.290091 44.853085 
L 90.727438 47.387263 
L 93.164784 50.278968 
L 95.602131 53.52088 
L 98.039477 57.104794 
L 101.08616 62.051725 
L 104.132843 67.499236 
L 107.179526 73.425785 
L 110.226209 79.807935 
L 113.882229 88.032253 
L 117.538249 96.829378 
L 121.803605 107.749667 
L 126.068961 119.296701 
L 130.943654 133.145787 
L 136.427684 149.389946 
L 143.739723 171.793556 
L 163.238494 232.002894 
L 168.722524 248.088623 
L 173.597217 261.754264 
L 177.862573 273.109382 
L 182.127929 283.809995 
L 185.783949 292.398018 
L 189.439969 300.395277 
L 192.486652 306.575424 
L 195.533335 312.289195 
L 198.580018 317.513994 
L 201.626701 322.229162 
L 204.064047 325.621761 
L 206.501394 328.667635 
L 208.93874 331.359074 
L 211.376086 333.689266 
L 213.813433 335.652312 
L 215.641443 336.880634 
L 217.469453 337.897873 
L 219.297462 338.702581 
L 221.125472 339.293612 
L 222.953482 339.670125 
L 224.781492 339.831583 
L 226.609502 339.777757 
L 228.437512 339.508724 
L 230.265521 339.024866 
L 232.093531 338.326872 
L 233.921541 337.415736 
L 235.749551 336.292756 
L 237.577561 334.95953 
L 240.014907 332.858172 
L 242.452254 330.391772 
L 244.8896 327.566573 
L 247.326946 324.389726 
L 249.764293 320.869272 
L 252.201639 317.014123 
L 255.248322 311.739463 
L 258.295005 305.978007 
L 261.341688 299.752537 
L 264.997708 291.704261 
L 268.653728 283.06917 
L 272.309747 273.89643 
L 276.575104 262.585201 
L 281.449797 248.961817 
L 286.933826 232.913049 
L 293.636529 212.549386 
L 318.61933 135.809327 
L 324.103359 120.143135 
L 328.978052 106.94783 
L 333.243408 96.075608 
L 336.899428 87.324347 
L 340.555448 79.149924 
L 343.602131 72.812227 
L 346.648814 66.932558 
L 349.695497 61.534168 
L 352.74218 56.638403 
L 355.179526 53.096761 
L 357.616873 49.898194 
L 360.054219 47.050798 
L 362.491566 44.56178 
L 364.928912 42.437441 
L 367.366258 40.683158 
L 369.194268 39.613001 
L 371.022278 38.755041 
L 372.850288 38.110499 
L 374.678298 37.680295 
L 376.506308 37.465039 
L 378.334317 37.465039 
L 380.162327 37.680295 
L 381.990337 38.110499 
L 383.818347 38.755041 
L 385.646357 39.613001 
L 387.474367 40.683158 
L 389.302376 41.963988 
L 391.739723 43.996281 
L 394.177069 46.394684 
L 396.614416 49.153126 
L 399.051762 52.264624 
L 401.489109 55.721305 
L 403.926455 59.514417 
L 406.973138 64.714209 
L 410.019821 70.404053 
L 413.066504 76.561446 
L 416.722524 84.533077 
L 420.378543 93.097439 
L 424.034563 102.205769 
L 428.299919 113.450327 
L 433.174612 127.009314 
L 438.658642 143.001451 
L 445.361344 163.319633 
L 456.93874 199.327697 
L 466.078789 227.427112 
L 472.172155 245.45507 
L 477.046848 259.244234 
L 481.312204 270.728316 
L 485.577561 281.576343 
L 489.23358 290.304542 
L 492.8896 298.453896 
L 495.936283 304.769272 
L 498.982966 310.625414 
L 502.029649 315.999164 
L 505.076332 320.869272 
L 507.513679 324.389726 
L 509.951025 327.566573 
L 512.388371 330.391772 
L 514.825718 332.858172 
L 517.263064 334.95953 
L 519.700411 336.690528 
L 521.528421 337.743056 
L 523.35643 338.583274 
L 525.18444 339.209985 
L 527.01245 339.622296 
L 528.84046 339.819621 
L 530.66847 339.801679 
L 532.49648 339.568495 
L 534.324489 339.120402 
L 536.152499 338.458036 
L 537.980509 337.582342 
L 539.808519 336.494567 
L 541.636529 335.196258 
L 544.073875 333.140923 
L 546.511222 330.719831 
L 548.948568 327.939109 
L 551.385914 324.805796 
L 553.823261 321.327824 
L 556.260607 317.513994 
L 559.30729 312.289195 
L 562.353973 306.575424 
L 565.400656 300.395277 
L 569.056676 292.398018 
L 572.712696 283.809995 
L 576.368715 274.680105 
L 580.634072 263.413212 
L 585.508765 249.832624 
L 590.992794 233.821452 
L 597.695497 213.487909 
L 609.882229 175.578685 
L 618.412941 149.389946 
L 624.506308 131.381011 
L 629.381 117.612095 
L 633.646357 106.149224 
L 637.911713 95.3255 
L 641.567733 86.620448 
L 645.223752 78.496243 
L 648.270435 72.203251 
L 651.317118 66.370694 
L 654.363801 61.021638 
L 657.410484 56.177234 
L 659.847831 52.678004 
L 662.285177 49.522908 
L 664.722524 46.719934 
L 667.15987 44.276176 
L 669.597217 42.197818 
L 671.425227 40.882045 
L 673.253236 39.776662 
L 675.081246 38.883243 
L 676.909256 38.20306 
L 678.737266 37.737081 
L 680.565276 37.485971 
L 681.783949 37.438125 
L 681.783949 37.438125 
" clip-path="url(#p836653b694)" style="fill: none; stroke: #4CAF50; stroke-width: 2; stroke-linecap: square"/>
   </g>
   <g id="line2d_11">
    <path d="M 73.056676 188.638218 
L 84.634072 152.844437 
L 90.727438 134.697179 
L 96.211467 119.08552 
L 100.476824 107.548906 
L 104.74218 96.640594 
L 108.398199 87.854902 
L 112.054219 79.643028 
L 115.100902 73.271967 
L 118.147585 67.357117 
L 121.194268 61.921866 
L 124.240951 56.987707 
L 126.678298 53.414348 
L 129.115644 50.18326 
L 131.552991 47.302622 
L 133.990337 44.779725 
L 136.427684 42.620954 
L 138.86503 40.831775 
L 140.69304 39.735194 
L 142.52105 38.850636 
L 144.349059 38.179361 
L 146.177069 37.722325 
L 148.005079 37.480178 
L 149.833089 37.453264 
L 151.661099 37.641624 
L 153.489109 38.044987 
L 155.317118 38.66278 
L 157.145128 39.494123 
L 158.973138 40.537833 
L 160.801148 41.792423 
L 163.238494 43.790115 
L 165.675841 46.154438 
L 168.113187 48.879409 
L 170.550534 51.95813 
L 172.98788 55.382807 
L 175.425227 59.144774 
L 178.47191 64.306959 
L 181.518593 69.960805 
L 184.565276 76.083955 
L 187.611959 82.652194 
L 191.267978 91.084911 
L 194.923998 100.073054 
L 199.189354 111.192785 
L 203.454711 122.912584 
L 208.329403 136.924741 
L 214.42277 155.158612 
L 222.953482 181.508594 
L 236.968224 224.893791 
L 243.06159 243.023188 
L 247.936283 256.921269 
L 252.810976 270.12845 
L 257.076332 281.012728 
L 260.732352 289.775488 
L 264.388371 297.962415 
L 267.435055 304.311249 
L 270.481738 310.20266 
L 273.528421 315.613351 
L 276.575104 320.521925 
L 279.01245 324.074148 
L 281.449797 327.283564 
L 283.887143 330.142047 
L 286.324489 332.642364 
L 288.761836 334.778186 
L 291.199182 336.544106 
L 293.027192 337.623073 
L 294.855202 338.489901 
L 296.683212 339.143356 
L 298.511222 339.582505 
L 300.339231 339.806725 
L 302.167241 339.815696 
L 303.995251 339.609406 
L 305.823261 339.188147 
L 307.651271 338.55252 
L 309.479281 337.703431 
L 311.30729 336.642087 
L 313.1353 335.37 
L 315.572647 333.349236 
L 318.009993 330.962187 
L 320.44734 328.214895 
L 322.884686 325.114315 
L 325.322032 321.668294 
L 327.759379 317.885554 
L 330.806062 312.698284 
L 333.852745 307.020426 
L 336.899428 300.874432 
L 339.946111 294.284606 
L 343.602131 285.827765 
L 347.25815 276.817568 
L 351.523507 265.674893 
L 356.398199 252.21476 
L 361.882229 236.310238 
L 367.975595 217.931838 
L 377.724981 187.687256 
L 388.69304 153.769077 
L 394.786406 135.586634 
L 400.270435 119.931271 
L 405.145128 106.747874 
L 409.410484 95.887737 
L 413.066504 87.147995 
L 416.722524 78.986096 
L 419.769207 72.659553 
L 422.81589 66.79164 
L 425.862573 61.405563 
L 428.909256 56.52262 
L 431.346602 52.991568 
L 433.783949 49.803857 
L 436.221295 46.967556 
L 438.658642 44.489844 
L 441.095988 42.376993 
L 443.533335 40.63435 
L 445.361344 39.573006 
L 447.189354 38.723916 
L 449.017364 38.08829 
L 450.845374 37.667031 
L 452.673384 37.46074 
L 454.501394 37.469712 
L 456.329403 37.693932 
L 458.157413 38.133081 
L 459.985423 38.786535 
L 461.813433 39.653364 
L 463.641443 40.732331 
L 465.469453 42.021902 
L 467.906799 44.065719 
L 470.344145 46.475469 
L 472.781492 49.245055 
L 475.218838 52.367464 
L 477.656185 55.834795 
L 480.093531 59.63827 
L 483.140214 64.850573 
L 486.186897 70.552387 
L 489.23358 76.721165 
L 492.8896 84.70562 
L 496.54562 93.281822 
L 500.201639 102.400944 
L 504.466996 113.656683 
L 509.341688 127.226488 
L 514.825718 143.228162 
L 521.528421 163.554049 
L 533.715153 201.460882 
L 542.245865 227.656849 
L 548.339231 245.675318 
L 553.213924 259.454375 
L 557.479281 270.927866 
L 561.744637 281.763755 
L 565.400656 290.480391 
L 569.056676 298.617181 
L 572.103359 304.921373 
L 575.150042 310.765729 
L 578.196725 316.127139 
L 581.243408 320.984401 
L 583.680755 324.494248 
L 586.118101 327.660223 
L 588.555448 330.474313 
L 590.992794 332.929395 
L 593.430141 335.019255 
L 595.867487 336.738604 
L 597.695497 337.782314 
L 599.523507 338.613657 
L 601.351516 339.23145 
L 603.179526 339.634813 
L 605.007536 339.823173 
L 606.835546 339.796259 
L 608.663556 339.554112 
L 610.491566 339.097075 
L 612.319575 338.4258 
L 614.147585 337.541243 
L 615.975595 336.444662 
L 617.803605 335.137619 
L 620.240951 333.070771 
L 622.678298 330.638342 
L 625.115644 327.846491 
L 627.552991 324.702283 
L 629.990337 321.213677 
L 632.427684 317.389504 
L 635.474367 312.15222 
L 638.52105 306.426506 
L 641.567733 300.235005 
L 645.223752 292.224963 
L 648.879772 283.625141 
L 652.535792 274.484504 
L 656.801148 263.206485 
L 661.675841 249.615148 
L 667.15987 233.594518 
L 673.862573 213.253369 
L 681.783949 188.638218 
L 681.783949 188.638218 
" clip-path="url(#p836653b694)" style="fill: none; stroke: #FFA000; stroke-width: 2; stroke-linecap: square"/>
   </g>
   <g id="line2d_12">
    <path d="M 42.620312 188.638218 
L 712.220312 188.638218 
" clip-path="url(#p836653b694)" style="fill: none; stroke: #000000; stroke-opacity: 0.1; stroke-width: 1.5; stroke-linecap: square"/>
   </g>
   <g id="line2d_13">
    <path d="M 42.620312 339.838312 
L 712.220312 339.838312 
" clip-path="url(#p836653b694)" style="fill: none; stroke-dasharray: 5.55,2.4; stroke-dashoffset: 0; stroke: #000000; stroke-opacity: 0.1; stroke-width: 1.5"/>
   </g>
   <g id="line2d_14">
    <path d="M 73.056676 354.958125 
L 73.056676 22.318125 
" clip-path="url(#p836653b694)" style="fill: none; stroke: #000000; stroke-opacity: 0.1; stroke-width: 1.5; stroke-linecap: square"/>
   </g>
   <g id="line2d_15">
    <path d="M 681.783949 354.958125 
L 681.783949 22.318125 
" clip-path="url(#p836653b694)" style="fill: none; stroke-dasharray: 5.55,2.4; stroke-dashoffset: 0; stroke: #000000; stroke-opacity: 0.1; stroke-width: 1.5"/>
   </g>
   <g id="patch_3">
    <path d="M 42.620312 354.958125 
L 42.620312 22.318125 
" style="fill: none; stroke:rgb(255, 255, 255); stroke-width: 0.8; stroke-linejoin: miter; stroke-linecap: square"/>
   </g>
   <g id="patch_4">
    <path d="M 712.220312 354.958125 
L 712.220312 22.318125 
" style="fill: none; stroke:rgb(255, 255, 255); stroke-width: 0.8; stroke-linejoin: miter; stroke-linecap: square"/>
   </g>
   <g id="patch_5">
    <path d="M 42.620312 354.958125 
L 712.220312 354.958125 
" style="fill: none; stroke:rgb(255, 255, 255); stroke-width: 0.8; stroke-linejoin: miter; stroke-linecap: square"/>
   </g>
   <g id="patch_6">
    <path d="M 42.620312 22.318125 
L 712.220312 22.318125 
" style="fill: none; stroke:rgb(255, 255, 255); stroke-width: 0.8; stroke-linejoin: miter; stroke-linecap: square"/>
   </g>
   <g id="text_9">
    <!-- Orthogonal Family -->
    <g transform="translate(322.561563 16.318125) scale(0.12 -0.12)">
     <defs>
      <path id="DejaVuSans-4f" d="M 2522 4238 
Q 1834 4238 1429 3725 
Q 1025 3213 1025 2328 
Q 1025 1447 1429 934 
Q 1834 422 2522 422 
Q 3209 422 3611 934 
Q 4013 1447 4013 2328 
Q 4013 3213 3611 3725 
Q 3209 4238 2522 4238 
z
M 2522 4750 
Q 3503 4750 4090 4092 
Q 4678 3434 4678 2328 
Q 4678 1225 4090 567 
Q 3503 -91 2522 -91 
Q 1538 -91 948 565 
Q 359 1222 359 2328 
Q 359 3434 948 4092 
Q 1538 4750 2522 4750 
z
" transform="scale(0.015625)"/>
      <path id="DejaVuSans-72" d="M 2631 2963 
Q 2534 3019 2420 3045 
Q 2306 3072 2169 3072 
Q 1681 3072 1420 2755 
Q 1159 2438 1159 1844 
L 1159 0 
L 581 0 
L 581 3500 
L 1159 3500 
L 1159 2956 
Q 1341 3275 1631 3429 
Q 1922 3584 2338 3584 
Q 2397 3584 2469 3576 
Q 2541 3569 2628 3553 
L 2631 2963 
z
" transform="scale(0.015625)"/>
      <path id="DejaVuSans-74" d="M 1172 4494 
L 1172 3500 
L 2356 3500 
L 2356 3053 
L 1172 3053 
L 1172 1153 
Q 1172 725 1289 603 
Q 1406 481 1766 481 
L 2356 481 
L 2356 0 
L 1766 0 
Q 1100 0 847 248 
Q 594 497 594 1153 
L 594 3053 
L 172 3053 
L 172 3500 
L 594 3500 
L 594 4494 
L 1172 4494 
z
" transform="scale(0.015625)"/>
      <path id="DejaVuSans-68" d="M 3513 2113 
L 3513 0 
L 2938 0 
L 2938 2094 
Q 2938 2591 2744 2837 
Q 2550 3084 2163 3084 
Q 1697 3084 1428 2787 
Q 1159 2491 1159 1978 
L 1159 0 
L 581 0 
L 581 4863 
L 1159 4863 
L 1159 2956 
Q 1366 3272 1645 3428 
Q 1925 3584 2291 3584 
Q 2894 3584 3203 3211 
Q 3513 2838 3513 2113 
z
" transform="scale(0.015625)"/>
      <path id="DejaVuSans-6f" d="M 1959 3097 
Q 1497 3097 1228 2736 
Q 959 2375 959 1747 
Q 959 1119 1226 758 
Q 1494 397 1959 397 
Q 2419 397 2687 759 
Q 2956 1122 2956 1747 
Q 2956 2369 2687 2733 
Q 2419 3097 1959 3097 
z
M 1959 3584 
Q 2709 3584 3137 3096 
Q 3566 2609 3566 1747 
Q 3566 888 3137 398 
Q 2709 -91 1959 -91 
Q 1206 -91 779 398 
Q 353 888 353 1747 
Q 353 2609 779 3096 
Q 1206 3584 1959 3584 
z
" transform="scale(0.015625)"/>
      <path id="DejaVuSans-67" d="M 2906 1791 
Q 2906 2416 2648 2759 
Q 2391 3103 1925 3103 
Q 1463 3103 1205 2759 
Q 947 2416 947 1791 
Q 947 1169 1205 825 
Q 1463 481 1925 481 
Q 2391 481 2648 825 
Q 2906 1169 2906 1791 
z
M 3481 434 
Q 3481 -459 3084 -895 
Q 2688 -1331 1869 -1331 
Q 1566 -1331 1297 -1286 
Q 1028 -1241 775 -1147 
L 775 -588 
Q 1028 -725 1275 -790 
Q 1522 -856 1778 -856 
Q 2344 -856 2625 -561 
Q 2906 -266 2906 331 
L 2906 616 
Q 2728 306 2450 153 
Q 2172 0 1784 0 
Q 1141 0 747 490 
Q 353 981 353 1791 
Q 353 2603 747 3093 
Q 1141 3584 1784 3584 
Q 2172 3584 2450 3431 
Q 2728 3278 2906 2969 
L 2906 3500 
L 3481 3500 
L 3481 434 
z
" transform="scale(0.015625)"/>
      <path id="DejaVuSans-6e" d="M 3513 2113 
L 3513 0 
L 2938 0 
L 2938 2094 
Q 2938 2591 2744 2837 
Q 2550 3084 2163 3084 
Q 1697 3084 1428 2787 
Q 1159 2491 1159 1978 
L 1159 0 
L 581 0 
L 581 3500 
L 1159 3500 
L 1159 2956 
Q 1366 3272 1645 3428 
Q 1925 3584 2291 3584 
Q 2894 3584 3203 3211 
Q 3513 2838 3513 2113 
z
" transform="scale(0.015625)"/>
      <path id="DejaVuSans-61" d="M 2194 1759 
Q 1497 1759 1228 1600 
Q 959 1441 959 1056 
Q 959 750 1161 570 
Q 1363 391 1709 391 
Q 2188 391 2477 730 
Q 2766 1069 2766 1631 
L 2766 1759 
L 2194 1759 
z
M 3341 1997 
L 3341 0 
L 2766 0 
L 2766 531 
Q 2569 213 2275 61 
Q 1981 -91 1556 -91 
Q 1019 -91 701 211 
Q 384 513 384 1019 
Q 384 1609 779 1909 
Q 1175 2209 1959 2209 
L 2766 2209 
L 2766 2266 
Q 2766 2663 2505 2880 
Q 2244 3097 1772 3097 
Q 1472 3097 1187 3025 
Q 903 2953 641 2809 
L 641 3341 
Q 956 3463 1253 3523 
Q 1550 3584 1831 3584 
Q 2591 3584 2966 3190 
Q 3341 2797 3341 1997 
z
" transform="scale(0.015625)"/>
      <path id="DejaVuSans-6c" d="M 603 4863 
L 1178 4863 
L 1178 0 
L 603 0 
L 603 4863 
z
" transform="scale(0.015625)"/>
      <path id="DejaVuSans-20" transform="scale(0.015625)"/>
      <path id="DejaVuSans-46" d="M 628 4666 
L 3309 4666 
L 3309 4134 
L 1259 4134 
L 1259 2759 
L 3109 2759 
L 3109 2228 
L 1259 2228 
L 1259 0 
L 628 0 
L 628 4666 
z
" transform="scale(0.015625)"/>
      <path id="DejaVuSans-6d" d="M 3328 2828 
Q 3544 3216 3844 3400 
Q 4144 3584 4550 3584 
Q 5097 3584 5394 3201 
Q 5691 2819 5691 2113 
L 5691 0 
L 5113 0 
L 5113 2094 
Q 5113 2597 4934 2840 
Q 4756 3084 4391 3084 
Q 3944 3084 3684 2787 
Q 3425 2491 3425 1978 
L 3425 0 
L 2847 0 
L 2847 2094 
Q 2847 2600 2669 2842 
Q 2491 3084 2119 3084 
Q 1678 3084 1418 2786 
Q 1159 2488 1159 1978 
L 1159 0 
L 581 0 
L 581 3500 
L 1159 3500 
L 1159 2956 
Q 1356 3278 1631 3431 
Q 1906 3584 2284 3584 
Q 2666 3584 2933 3390 
Q 3200 3197 3328 2828 
z
" transform="scale(0.015625)"/>
      <path id="DejaVuSans-69" d="M 603 3500 
L 1178 3500 
L 1178 0 
L 603 0 
L 603 3500 
z
M 603 4863 
L 1178 4863 
L 1178 4134 
L 603 4134 
L 603 4863 
z
" transform="scale(0.015625)"/>
     </defs>
     <use xlink:href="#DejaVuSans-4f"/>
     <use xlink:href="#DejaVuSans-72" x="78.710938"/>
     <use xlink:href="#DejaVuSans-74" x="119.824219"/>
     <use xlink:href="#DejaVuSans-68" x="159.033203"/>
     <use xlink:href="#DejaVuSans-6f" x="222.412109"/>
     <use xlink:href="#DejaVuSans-67" x="283.59375"/>
     <use xlink:href="#DejaVuSans-6f" x="347.070312"/>
     <use xlink:href="#DejaVuSans-6e" x="408.251953"/>
     <use xlink:href="#DejaVuSans-61" x="471.630859"/>
     <use xlink:href="#DejaVuSans-6c" x="532.910156"/>
     <use xlink:href="#DejaVuSans-20" x="560.693359"/>
     <use xlink:href="#DejaVuSans-46" x="592.480469"/>
     <use xlink:href="#DejaVuSans-61" x="640.875"/>
     <use xlink:href="#DejaVuSans-6d" x="702.154297"/>
     <use xlink:href="#DejaVuSans-69" x="799.566406"/>
     <use xlink:href="#DejaVuSans-6c" x="827.349609"/>
     <use xlink:href="#DejaVuSans-79" x="855.132812"/>
    </g>
   </g>
   <g id="legend_1">
    <g id="patch_7">
     <path d="M 719.220312 226.833438 
L 788.13125 226.833438 
Q 790.13125 226.833438 790.13125 224.833438 
L 790.13125 152.442813 
Q 790.13125 150.442813 788.13125 150.442813 
L 719.220312 150.442813 
Q 717.220312 150.442813 717.220312 152.442813 
L 717.220312 224.833438 
Q 717.220312 226.833438 719.220312 226.833438 
z
" style="fill: #ffffff; opacity: 0.8; stroke: #cccccc; stroke-linejoin: miter"/>
    </g>
    <g id="line2d_16">
     <path d="M 721.220312 158.54125 
L 731.220312 158.54125 
L 741.220312 158.54125 
" style="fill: none; stroke: #000000; stroke-width: 1.5; stroke-linecap: square"/>
    </g>
    <g id="text_10">
     <!-- 1 -->
     <g transform="translate(749.220312 162.04125) scale(0.1 -0.1)">
      <use xlink:href="#DejaVuSans-31"/>
     </g>
    </g>
    <g id="line2d_17">
     <path d="M 721.220312 173.219375 
L 731.220312 173.219375 
L 741.220312 173.219375 
" style="fill: none; stroke: #2196F3; stroke-width: 1.5; stroke-linecap: square"/>
    </g>
    <g id="text_11">
     <!-- cos(x) -->
     <g transform="translate(749.220312 176.719375) scale(0.1 -0.1)">
      <defs>
       <path id="DejaVuSans-63" d="M 3122 3366 
L 3122 2828 
Q 2878 2963 2633 3030 
Q 2388 3097 2138 3097 
Q 1578 3097 1268 2742 
Q 959 2388 959 1747 
Q 959 1106 1268 751 
Q 1578 397 2138 397 
Q 2388 397 2633 464 
Q 2878 531 3122 666 
L 3122 134 
Q 2881 22 2623 -34 
Q 2366 -91 2075 -91 
Q 1284 -91 818 406 
Q 353 903 353 1747 
Q 353 2603 823 3093 
Q 1294 3584 2113 3584 
Q 2378 3584 2631 3529 
Q 2884 3475 3122 3366 
z
" transform="scale(0.015625)"/>
       <path id="DejaVuSans-73" d="M 2834 3397 
L 2834 2853 
Q 2591 2978 2328 3040 
Q 2066 3103 1784 3103 
Q 1356 3103 1142 2972 
Q 928 2841 928 2578 
Q 928 2378 1081 2264 
Q 1234 2150 1697 2047 
L 1894 2003 
Q 2506 1872 2764 1633 
Q 3022 1394 3022 966 
Q 3022 478 2636 193 
Q 2250 -91 1575 -91 
Q 1294 -91 989 -36 
Q 684 19 347 128 
L 347 722 
Q 666 556 975 473 
Q 1284 391 1588 391 
Q 1994 391 2212 530 
Q 2431 669 2431 922 
Q 2431 1156 2273 1281 
Q 2116 1406 1581 1522 
L 1381 1569 
Q 847 1681 609 1914 
Q 372 2147 372 2553 
Q 372 3047 722 3315 
Q 1072 3584 1716 3584 
Q 2034 3584 2315 3537 
Q 2597 3491 2834 3397 
z
" transform="scale(0.015625)"/>
       <path id="DejaVuSans-28" d="M 1984 4856 
Q 1566 4138 1362 3434 
Q 1159 2731 1159 2009 
Q 1159 1288 1364 580 
Q 1569 -128 1984 -844 
L 1484 -844 
Q 1016 -109 783 600 
Q 550 1309 550 2009 
Q 550 2706 781 3412 
Q 1013 4119 1484 4856 
L 1984 4856 
z
" transform="scale(0.015625)"/>
       <path id="DejaVuSans-29" d="M 513 4856 
L 1013 4856 
Q 1481 4119 1714 3412 
Q 1947 2706 1947 2009 
Q 1947 1309 1714 600 
Q 1481 -109 1013 -844 
L 513 -844 
Q 928 -128 1133 580 
Q 1338 1288 1338 2009 
Q 1338 2731 1133 3434 
Q 928 4138 513 4856 
z
" transform="scale(0.015625)"/>
      </defs>
      <use xlink:href="#DejaVuSans-63"/>
      <use xlink:href="#DejaVuSans-6f" x="54.980469"/>
      <use xlink:href="#DejaVuSans-73" x="116.162109"/>
      <use xlink:href="#DejaVuSans-28" x="168.261719"/>
      <use xlink:href="#DejaVuSans-78" x="207.275391"/>
      <use xlink:href="#DejaVuSans-29" x="266.455078"/>
     </g>
    </g>
    <g id="line2d_18">
     <path d="M 721.220312 187.8975 
L 731.220312 187.8975 
L 741.220312 187.8975 
" style="fill: none; stroke: #FF4081; stroke-width: 1.5; stroke-linecap: square"/>
    </g>
    <g id="text_12">
     <!-- sin(x) -->
     <g transform="translate(749.220312 191.3975) scale(0.1 -0.1)">
      <use xlink:href="#DejaVuSans-73"/>
      <use xlink:href="#DejaVuSans-69" x="52.099609"/>
      <use xlink:href="#DejaVuSans-6e" x="79.882812"/>
      <use xlink:href="#DejaVuSans-28" x="143.261719"/>
      <use xlink:href="#DejaVuSans-78" x="182.275391"/>
      <use xlink:href="#DejaVuSans-29" x="241.455078"/>
     </g>
    </g>
    <g id="line2d_19">
     <path d="M 721.220312 202.575625 
L 731.220312 202.575625 
L 741.220312 202.575625 
" style="fill: none; stroke: #4CAF50; stroke-width: 1.5; stroke-linecap: square"/>
    </g>
    <g id="text_13">
     <!-- cos(2x) -->
     <g transform="translate(749.220312 206.075625) scale(0.1 -0.1)">
      <use xlink:href="#DejaVuSans-63"/>
      <use xlink:href="#DejaVuSans-6f" x="54.980469"/>
      <use xlink:href="#DejaVuSans-73" x="116.162109"/>
      <use xlink:href="#DejaVuSans-28" x="168.261719"/>
      <use xlink:href="#DejaVuSans-32" x="207.275391"/>
      <use xlink:href="#DejaVuSans-78" x="270.898438"/>
      <use xlink:href="#DejaVuSans-29" x="330.078125"/>
     </g>
    </g>
    <g id="line2d_20">
     <path d="M 721.220312 217.25375 
L 731.220312 217.25375 
L 741.220312 217.25375 
" style="fill: none; stroke: #FFA000; stroke-width: 1.5; stroke-linecap: square"/>
    </g>
    <g id="text_14">
     <!-- sin(2x) -->
     <g transform="translate(749.220312 220.75375) scale(0.1 -0.1)">
      <use xlink:href="#DejaVuSans-73"/>
      <use xlink:href="#DejaVuSans-69" x="52.099609"/>
      <use xlink:href="#DejaVuSans-6e" x="79.882812"/>
      <use xlink:href="#DejaVuSans-28" x="143.261719"/>
      <use xlink:href="#DejaVuSans-32" x="182.275391"/>
      <use xlink:href="#DejaVuSans-78" x="245.898438"/>
      <use xlink:href="#DejaVuSans-29" x="305.078125"/>
     </g>
    </g>
   </g>
  </g>
 </g>
 <defs>
  <clipPath id="p836653b694">
   <rect x="42.620312" y="22.318125" width="669.6" height="332.64"/>
  </clipPath>
 </defs>
</svg>
